<?xml version="1.0" encoding="utf-8"?>
<svg version="1.1" xmlns:xlink="http://www.w3.org/1999/xlink" width="23px" height="15px" xmlns="http://www.w3.org/2000/svg">
  <defs>
    <pattern id="BGPattern" patternUnits="userSpaceOnUse" alignment="0 0" imageRepeat="None" />
    <mask fill="white" id="Clip123">
      <path d="M 17.07672991071429 11.751302083333332  C 18.792317708333336 10.696614583333332  20.219122023809526 9.279513888888886  21.357142857142858 7.5  C 20.05654761904762 5.451388888888889  18.426525297619047 3.919270833333333  16.467075892857142 2.9036458333333326  C 16.989025297619047 3.8064236111111094  17.25 4.782986111111111  17.25 5.833333333333332  C 17.25 7.439236111111109  16.68740699404762 8.812934027777777  15.562220982142858 9.954427083333334  C 14.437034970238097 11.095920138888886  13.08296130952381 11.666666666666666  11.5 11.666666666666666  C 9.917038690476192 11.666666666666666  8.562965029761907 11.095920138888886  7.437779017857143 9.954427083333334  C 6.312593005952382 8.812934027777777  5.75 7.439236111111109  5.75 5.833333333333332  C 5.75 4.782986111111111  6.010974702380953 3.8064236111111094  6.532924107142857 2.9036458333333326  C 4.573474702380953 3.919270833333333  2.9434523809523814 5.451388888888889  1.6428571428571428 7.5  C 2.7808779761904767 9.279513888888886  4.207682291666667 10.696614583333332  5.923270089285714 11.751302083333332  C 7.638857886904763 12.805989583333332  9.497767857142856 13.333333333333332  11.5 13.333333333333332  C 13.502232142857142 13.333333333333332  15.36114211309524 12.805989583333332  17.07672991071429 11.751302083333332  Z M 11.936383928571429 2.942708333333334  C 12.056175595238097 2.821180555555556  12.116071428571429 2.6736111111111107  12.116071428571429 2.4999999999999996  C 12.116071428571429 2.3263888888888884  12.056175595238097 2.178819444444443  11.936383928571429 2.057291666666667  C 11.816592261904765 1.9357638888888873  11.671130952380953 1.8749999999999982  11.5 1.875  C 10.430431547619047 1.8749999999999982  9.512741815476192 2.2634548611111107  8.746930803571429 3.040364583333333  C 7.981119791666668 3.817274305555556  7.598214285714286 4.748263888888889  7.598214285714286 5.833333333333332  C 7.598214285714286 6.006944444444444  7.65811011904762 6.154513888888889  7.777901785714286 6.276041666666667  C 7.897693452380953 6.397569444444443  8.043154761904763 6.458333333333334  8.214285714285715 6.458333333333334  C 8.385416666666668 6.458333333333334  8.530877976190478 6.397569444444443  8.650669642857144 6.276041666666667  C 8.77046130952381 6.154513888888889  8.830357142857144 6.006944444444444  8.830357142857144 5.833333333333332  C 8.830357142857144 5.086805555555555  9.091331845238095 4.448784722222222  9.61328125 3.919270833333333  C 10.135230654761907 3.389756944444444  10.764136904761907 3.124999999999999  11.5 3.1250000000000004  C 11.671130952380953 3.124999999999999  11.816592261904765 3.06423611111111  11.936383928571429 2.942708333333334  Z M 22.74330357142857 6.601562499999999  C 22.914434523809526 6.905381944444445  23 7.204861111111109  23 7.5  C 23 7.7951388888888875  22.914434523809526 8.094618055555555  22.74330357142857 8.398437499999998  C 21.54538690476191 10.394965277777777  19.934616815476197 11.99435763888889  17.91099330357143 13.196614583333334  C 15.887369791666668 14.398871527777777  13.750372023809526 15  11.5 15  C 9.249627976190478 15  7.112630208333334 14.39670138888889  5.089006696428572 13.190104166666666  C 3.0653831845238098 11.983506944444443  1.4546130952380956 10.386284722222221  0.2566964285714286 8.398437499999998  C 0.08556547619047619 8.094618055555555  0 7.7951388888888875  0 7.5  C 0 7.204861111111109  0.08556547619047619 6.905381944444445  0.2566964285714286 6.601562499999999  C 1.4546130952380956 4.613715277777778  3.0653831845238098 3.0164930555555545  5.089006696428572 1.809895833333333  C 7.112630208333334 0.6032986111111099  9.249627976190478 0  11.5 0  C 13.750372023809526 0  15.887369791666668 0.6032986111111099  17.91099330357143 1.809895833333333  C 19.934616815476197 3.0164930555555545  21.54538690476191 4.613715277777778  22.74330357142857 6.601562499999999  Z " fill-rule="evenodd" />
    </mask>
  </defs>
  <g transform="matrix(1 0 0 1 -408 -91 )">
    <path d="M 17.07672991071429 11.751302083333332  C 18.792317708333336 10.696614583333332  20.219122023809526 9.279513888888886  21.357142857142858 7.5  C 20.05654761904762 5.451388888888889  18.426525297619047 3.919270833333333  16.467075892857142 2.9036458333333326  C 16.989025297619047 3.8064236111111094  17.25 4.782986111111111  17.25 5.833333333333332  C 17.25 7.439236111111109  16.68740699404762 8.812934027777777  15.562220982142858 9.954427083333334  C 14.437034970238097 11.095920138888886  13.08296130952381 11.666666666666666  11.5 11.666666666666666  C 9.917038690476192 11.666666666666666  8.562965029761907 11.095920138888886  7.437779017857143 9.954427083333334  C 6.312593005952382 8.812934027777777  5.75 7.439236111111109  5.75 5.833333333333332  C 5.75 4.782986111111111  6.010974702380953 3.8064236111111094  6.532924107142857 2.9036458333333326  C 4.573474702380953 3.919270833333333  2.9434523809523814 5.451388888888889  1.6428571428571428 7.5  C 2.7808779761904767 9.279513888888886  4.207682291666667 10.696614583333332  5.923270089285714 11.751302083333332  C 7.638857886904763 12.805989583333332  9.497767857142856 13.333333333333332  11.5 13.333333333333332  C 13.502232142857142 13.333333333333332  15.36114211309524 12.805989583333332  17.07672991071429 11.751302083333332  Z M 11.936383928571429 2.942708333333334  C 12.056175595238097 2.821180555555556  12.116071428571429 2.6736111111111107  12.116071428571429 2.4999999999999996  C 12.116071428571429 2.3263888888888884  12.056175595238097 2.178819444444443  11.936383928571429 2.057291666666667  C 11.816592261904765 1.9357638888888873  11.671130952380953 1.8749999999999982  11.5 1.875  C 10.430431547619047 1.8749999999999982  9.512741815476192 2.2634548611111107  8.746930803571429 3.040364583333333  C 7.981119791666668 3.817274305555556  7.598214285714286 4.748263888888889  7.598214285714286 5.833333333333332  C 7.598214285714286 6.006944444444444  7.65811011904762 6.154513888888889  7.777901785714286 6.276041666666667  C 7.897693452380953 6.397569444444443  8.043154761904763 6.458333333333334  8.214285714285715 6.458333333333334  C 8.385416666666668 6.458333333333334  8.530877976190478 6.397569444444443  8.650669642857144 6.276041666666667  C 8.77046130952381 6.154513888888889  8.830357142857144 6.006944444444444  8.830357142857144 5.833333333333332  C 8.830357142857144 5.086805555555555  9.091331845238095 4.448784722222222  9.61328125 3.919270833333333  C 10.135230654761907 3.389756944444444  10.764136904761907 3.124999999999999  11.5 3.1250000000000004  C 11.671130952380953 3.124999999999999  11.816592261904765 3.06423611111111  11.936383928571429 2.942708333333334  Z M 22.74330357142857 6.601562499999999  C 22.914434523809526 6.905381944444445  23 7.204861111111109  23 7.5  C 23 7.7951388888888875  22.914434523809526 8.094618055555555  22.74330357142857 8.398437499999998  C 21.54538690476191 10.394965277777777  19.934616815476197 11.99435763888889  17.91099330357143 13.196614583333334  C 15.887369791666668 14.398871527777777  13.750372023809526 15  11.5 15  C 9.249627976190478 15  7.112630208333334 14.39670138888889  5.089006696428572 13.190104166666666  C 3.0653831845238098 11.983506944444443  1.4546130952380956 10.386284722222221  0.2566964285714286 8.398437499999998  C 0.08556547619047619 8.094618055555555  0 7.7951388888888875  0 7.5  C 0 7.204861111111109  0.08556547619047619 6.905381944444445  0.2566964285714286 6.601562499999999  C 1.4546130952380956 4.613715277777778  3.0653831845238098 3.0164930555555545  5.089006696428572 1.809895833333333  C 7.112630208333334 0.6032986111111099  9.249627976190478 0  11.5 0  C 13.750372023809526 0  15.887369791666668 0.6032986111111099  17.91099330357143 1.809895833333333  C 19.934616815476197 3.0164930555555545  21.54538690476191 4.613715277777778  22.74330357142857 6.601562499999999  Z " fill-rule="nonzero" fill="rgba(255, 255, 255, 1)" stroke="none" transform="matrix(1 0 0 1 408 91 )" class="fill" />
    <path d="M 17.07672991071429 11.751302083333332  C 18.792317708333336 10.696614583333332  20.219122023809526 9.279513888888886  21.357142857142858 7.5  C 20.05654761904762 5.451388888888889  18.426525297619047 3.919270833333333  16.467075892857142 2.9036458333333326  C 16.989025297619047 3.8064236111111094  17.25 4.782986111111111  17.25 5.833333333333332  C 17.25 7.439236111111109  16.68740699404762 8.812934027777777  15.562220982142858 9.954427083333334  C 14.437034970238097 11.095920138888886  13.08296130952381 11.666666666666666  11.5 11.666666666666666  C 9.917038690476192 11.666666666666666  8.562965029761907 11.095920138888886  7.437779017857143 9.954427083333334  C 6.312593005952382 8.812934027777777  5.75 7.439236111111109  5.75 5.833333333333332  C 5.75 4.782986111111111  6.010974702380953 3.8064236111111094  6.532924107142857 2.9036458333333326  C 4.573474702380953 3.919270833333333  2.9434523809523814 5.451388888888889  1.6428571428571428 7.5  C 2.7808779761904767 9.279513888888886  4.207682291666667 10.696614583333332  5.923270089285714 11.751302083333332  C 7.638857886904763 12.805989583333332  9.497767857142856 13.333333333333332  11.5 13.333333333333332  C 13.502232142857142 13.333333333333332  15.36114211309524 12.805989583333332  17.07672991071429 11.751302083333332  Z " stroke-width="0" stroke-dasharray="0" stroke="rgba(255, 255, 255, 0)" fill="none" transform="matrix(1 0 0 1 408 91 )" class="stroke" mask="url(#Clip123)" />
    <path d="M 11.936383928571429 2.942708333333334  C 12.056175595238097 2.821180555555556  12.116071428571429 2.6736111111111107  12.116071428571429 2.4999999999999996  C 12.116071428571429 2.3263888888888884  12.056175595238097 2.178819444444443  11.936383928571429 2.057291666666667  C 11.816592261904765 1.9357638888888873  11.671130952380953 1.8749999999999982  11.5 1.875  C 10.430431547619047 1.8749999999999982  9.512741815476192 2.2634548611111107  8.746930803571429 3.040364583333333  C 7.981119791666668 3.817274305555556  7.598214285714286 4.748263888888889  7.598214285714286 5.833333333333332  C 7.598214285714286 6.006944444444444  7.65811011904762 6.154513888888889  7.777901785714286 6.276041666666667  C 7.897693452380953 6.397569444444443  8.043154761904763 6.458333333333334  8.214285714285715 6.458333333333334  C 8.385416666666668 6.458333333333334  8.530877976190478 6.397569444444443  8.650669642857144 6.276041666666667  C 8.77046130952381 6.154513888888889  8.830357142857144 6.006944444444444  8.830357142857144 5.833333333333332  C 8.830357142857144 5.086805555555555  9.091331845238095 4.448784722222222  9.61328125 3.919270833333333  C 10.135230654761907 3.389756944444444  10.764136904761907 3.124999999999999  11.5 3.1250000000000004  C 11.671130952380953 3.124999999999999  11.816592261904765 3.06423611111111  11.936383928571429 2.942708333333334  Z " stroke-width="0" stroke-dasharray="0" stroke="rgba(255, 255, 255, 0)" fill="none" transform="matrix(1 0 0 1 408 91 )" class="stroke" mask="url(#Clip123)" />
    <path d="M 22.74330357142857 6.601562499999999  C 22.914434523809526 6.905381944444445  23 7.204861111111109  23 7.5  C 23 7.7951388888888875  22.914434523809526 8.094618055555555  22.74330357142857 8.398437499999998  C 21.54538690476191 10.394965277777777  19.934616815476197 11.99435763888889  17.91099330357143 13.196614583333334  C 15.887369791666668 14.398871527777777  13.750372023809526 15  11.5 15  C 9.249627976190478 15  7.112630208333334 14.39670138888889  5.089006696428572 13.190104166666666  C 3.0653831845238098 11.983506944444443  1.4546130952380956 10.386284722222221  0.2566964285714286 8.398437499999998  C 0.08556547619047619 8.094618055555555  0 7.7951388888888875  0 7.5  C 0 7.204861111111109  0.08556547619047619 6.905381944444445  0.2566964285714286 6.601562499999999  C 1.4546130952380956 4.613715277777778  3.0653831845238098 3.0164930555555545  5.089006696428572 1.809895833333333  C 7.112630208333334 0.6032986111111099  9.249627976190478 0  11.5 0  C 13.750372023809526 0  15.887369791666668 0.6032986111111099  17.91099330357143 1.809895833333333  C 19.934616815476197 3.0164930555555545  21.54538690476191 4.613715277777778  22.74330357142857 6.601562499999999  Z " stroke-width="0" stroke-dasharray="0" stroke="rgba(255, 255, 255, 0)" fill="none" transform="matrix(1 0 0 1 408 91 )" class="stroke" mask="url(#Clip123)" />
  </g>
</svg>