<?xml version="1.0" encoding="utf-8"?>
<svg version="1.1" xmlns:xlink="http://www.w3.org/1999/xlink" width="25px" height="25px" xmlns="http://www.w3.org/2000/svg">
  <defs>
    <pattern id="BGPattern" patternUnits="userSpaceOnUse" alignment="0 0" imageRepeat="None" />
    <mask fill="white" id="Clip141">
      <path d="M 0 25  L 0 0  L 25 0  L 25 25  L 0 25  Z " fill-rule="evenodd" />
    </mask>
  </defs>
  <g transform="matrix(1 0 0 1 -313 -797 )">
    <path d="M 0 25  L 0 0  L 25 0  L 25 25  L 0 25  Z " fill-rule="nonzero" fill="rgba(242, 242, 242, 1)" stroke="none" transform="matrix(1 0 0 1 313 797 )" class="fill" />
    <path d="M 0 25  L 0 0  L 25 0  L 25 25  L 0 25  Z " stroke-width="2" stroke-dasharray="0" stroke="rgba(215, 215, 215, 1)" fill="none" transform="matrix(1 0 0 1 313 797 )" class="stroke" mask="url(#Clip141)" />
    <path d="M 24.646446609406727 0.35355339059327373  L 0.35355339059327373 24.646446609406727  M 0.35355339059327373 0.35355339059327373  L 24.646446609406727 24.646446609406727  " stroke-width="1" stroke-dasharray="0" stroke="rgba(215, 215, 215, 1)" fill="none" transform="matrix(1 0 0 1 313 797 )" class="stroke" />
  </g>
</svg>