<?xml version="1.0" encoding="utf-8"?>
<svg version="1.1" xmlns:xlink="http://www.w3.org/1999/xlink" width="371px" height="220px" xmlns="http://www.w3.org/2000/svg">
  <defs>
    <pattern id="BGPattern" patternUnits="userSpaceOnUse" alignment="0 0" imageRepeat="None" />
    <mask fill="white" id="Clip57">
      <path d="M 0 220  L 0 0  L 371 0  L 371 220  L 0 220  Z " fill-rule="evenodd" />
    </mask>
  </defs>
  <g transform="matrix(1 0 0 1 -70 -181 )">
    <path d="M 0 220  L 0 0  L 371 0  L 371 220  L 0 220  Z " fill-rule="nonzero" fill="rgba(242, 242, 242, 1)" stroke="none" transform="matrix(1 0 0 1 70 181 )" class="fill" />
    <path d="M 0 220  L 0 0  L 371 0  L 371 220  L 0 220  Z " stroke-width="2" stroke-dasharray="0" stroke="rgba(121, 121, 121, 1)" fill="none" transform="matrix(1 0 0 1 70 181 )" class="stroke" mask="url(#Clip57)" />
    <path d="M 370.2747448688183 0.4300704281940125  L 0.725255131181721 219.56992957180597  M 0.725255131181721 0.4300704281940125  L 370.2747448688183 219.56992957180597  " stroke-width="1" stroke-dasharray="0" stroke="rgba(121, 121, 121, 1)" fill="none" transform="matrix(1 0 0 1 70 181 )" class="stroke" />
  </g>
</svg>