<?xml version="1.0" encoding="utf-8"?>
<svg version="1.1" xmlns:xlink="http://www.w3.org/1999/xlink" width="348px" height="154px" xmlns="http://www.w3.org/2000/svg">
  <defs>
    <mask fill="white" id="Clip92">
      <path d="M 10 154  C 4.45 154  0 149.55  0 144  L 0 9.999999999999998  C 0 4.45  4.45 0  10 0  L 338 0  C 343.55 0  348 4.45  348 9.999999999999998  L 348 144  C 348 149.55  343.55 154  338 154  " fill-rule="evenodd" />
    </mask>
  </defs>
  <g>
    <path d="M 0 0  L 348 0  L 348 154  L 0 154  L 0 0  " fill-rule="nonzero" fill="rgba(204, 204, 204, 1)" stroke="none" class="fill" mask="url(#Clip92)" />
    <path d="M 11 11  L 337 11  L 337 143  L 11 143  L 11 11  " fill-rule="nonzero" fill="rgba(255, 255, 255, 1)" stroke="none" class="fill" mask="url(#Clip92)" />
    <path d="M 192.51 46.199999999999996  C 186.042 46.199999999999996  180.96 41.117999999999995  180.96 34.65  C 180.96 28.182  186.042 23.099999999999998  192.51 23.099999999999998  C 198.978 23.099999999999998  204.06 28.182  204.06 34.65  C 204.06 41.117999999999995  198.978 46.199999999999996  192.51 46.199999999999996  " fill-rule="nonzero" fill="rgba(204, 204, 204, 1)" stroke="none" class="fill" mask="url(#Clip92)" />
    <path d="M 15 139  L 15 70.8  L 94.5 39.8  L 205.79999999999998 106.07586206896552  L 269.4 58.39999999999999  L 333 106.07586206896552  L 333 139  L 15 139  " fill-rule="nonzero" fill="rgba(22, 155, 213, 1)" stroke="none" class="fill" mask="url(#Clip92)" />
  </g>
</svg>