<?xml version="1.0" encoding="utf-8"?>
<svg version="1.1" xmlns:xlink="http://www.w3.org/1999/xlink" width="21px" height="22px" xmlns="http://www.w3.org/2000/svg">
  <defs>
    <pattern id="BGPattern" patternUnits="userSpaceOnUse" alignment="0 0" imageRepeat="None" />
    <mask fill="white" id="Clip97">
      <path d="M 13.653645833333343 0.34375  C 13.884548611111086 0.5729166666666288  14 0.8442982456140272  14 1.1578947368420813  L 14 20.84210526315792  C 14 21.155701754385973  13.884548611111086 21.427083333333258  13.653645833333343 21.65625  C 13.422743055555571 21.885416666666742  13.149305555555557 22  12.833333333333343 22  C 12.517361111111088 22  12.243923611111086 21.885416666666742  12.013020833333343 21.65625  L 5.942708333333343 15.631578947368437  L 1.1666666666666572 15.631578947368437  C 0.8506944444444429 15.631578947368437  0.5772569444444429 15.516995614035068  0.3463541666666572 15.287828947368437  C 0.11545138888891415 15.05866228070181  0 14.787280701754414  0 14.473684210526358  L 0 7.526315789473643  C 0 7.212719298245588  0.11545138888891415 6.94133771929819  0.3463541666666572 6.712171052631561  C 0.5772569444444429 6.483004385964931  0.8506944444444429 6.368421052631561  1.1666666666666572 6.368421052631561  L 5.942708333333343 6.368421052631561  L 12.013020833333343 0.34375  C 12.243923611111086 0.11458333333337123  12.517361111111088 0  12.833333333333343 0  C 13.149305555555557 0  13.422743055555571 0.11458333333337123  13.653645833333343 0.34375  Z M 20.225260416666657 8.430921052631561  C 20.741753472222214 9.22697368421052  21 10.083333333333258  21 11  C 21 11.916666666666742  20.741753472222214 12.770010964912217  20.225260416666657 13.560032894736764  C 19.708767361111086 14.350054824561425  19.025173611111086 14.913925438596493  18.174479166666657 15.251644736842081  C 18.052951388888914 15.311951754385973  17.901041666666657 15.342105263157919  17.71875 15.342105263157919  C 17.402777777777786 15.342105263157919  17.129340277777786 15.23053728070181  16.8984375 15.00740131578948  C 16.667534722222214 14.784265350877265  16.552083333333343 14.509868421052602  16.552083333333343 14.18421052631584  C 16.552083333333343 13.930921052631563  16.625 13.716831140350905  16.770833333333343 13.541940789473642  C 16.916666666666657 13.367050438596493  17.09288194444443 13.216282894736764  17.299479166666657 13.089638157894683  C 17.506076388888914 12.962993421052602  17.712673611111086 12.82428728070181  17.919270833333343 12.673519736842081  C 18.12586805555557 12.522752192982466  18.302083333333343 12.30866228070181  18.447916666666657 12.03125  C 18.59375 11.75383771929819  18.666666666666657 11.41008771929819  18.666666666666657 11  C 18.666666666666657 10.58991228070181  18.59375 10.24616228070181  18.447916666666657 9.96875  C 18.302083333333343 9.69133771929819  18.12586805555557 9.477247807017534  17.919270833333343 9.326480263157919  C 17.712673611111086 9.17571271929819  17.506076388888914 9.037006578947398  17.299479166666657 8.910361842105317  C 17.09288194444443 8.783717105263236  16.916666666666657 8.632949561403507  16.770833333333343 8.458059210526358  C 16.625 8.283168859649095  16.552083333333343 8.069078947368439  16.552083333333343 7.815789473684163  C 16.552083333333343 7.490131578947398  16.667534722222214 7.215734649122737  16.8984375 6.99259868421052  C 17.129340277777786 6.76946271929819  17.402777777777786 6.65789473684208  17.71875 6.65789473684208  C 17.901041666666657 6.65789473684208  18.052951388888914 6.688048245614027  18.174479166666657 6.74835526315792  C 19.025173611111086 7.074013157894683  19.708767361111086 7.634868421052602  20.225260416666657 8.430921052631561  Z " fill-rule="evenodd" />
    </mask>
  </defs>
  <g transform="matrix(1 0 0 1 -14 -5 )">
    <path d="M 13.653645833333343 0.34375  C 13.884548611111086 0.5729166666666288  14 0.8442982456140272  14 1.1578947368420813  L 14 20.84210526315792  C 14 21.155701754385973  13.884548611111086 21.427083333333258  13.653645833333343 21.65625  C 13.422743055555571 21.885416666666742  13.149305555555557 22  12.833333333333343 22  C 12.517361111111088 22  12.243923611111086 21.885416666666742  12.013020833333343 21.65625  L 5.942708333333343 15.631578947368437  L 1.1666666666666572 15.631578947368437  C 0.8506944444444429 15.631578947368437  0.5772569444444429 15.516995614035068  0.3463541666666572 15.287828947368437  C 0.11545138888891415 15.05866228070181  0 14.787280701754414  0 14.473684210526358  L 0 7.526315789473643  C 0 7.212719298245588  0.11545138888891415 6.94133771929819  0.3463541666666572 6.712171052631561  C 0.5772569444444429 6.483004385964931  0.8506944444444429 6.368421052631561  1.1666666666666572 6.368421052631561  L 5.942708333333343 6.368421052631561  L 12.013020833333343 0.34375  C 12.243923611111086 0.11458333333337123  12.517361111111088 0  12.833333333333343 0  C 13.149305555555557 0  13.422743055555571 0.11458333333337123  13.653645833333343 0.34375  Z M 20.225260416666657 8.430921052631561  C 20.741753472222214 9.22697368421052  21 10.083333333333258  21 11  C 21 11.916666666666742  20.741753472222214 12.770010964912217  20.225260416666657 13.560032894736764  C 19.708767361111086 14.350054824561425  19.025173611111086 14.913925438596493  18.174479166666657 15.251644736842081  C 18.052951388888914 15.311951754385973  17.901041666666657 15.342105263157919  17.71875 15.342105263157919  C 17.402777777777786 15.342105263157919  17.129340277777786 15.23053728070181  16.8984375 15.00740131578948  C 16.667534722222214 14.784265350877265  16.552083333333343 14.509868421052602  16.552083333333343 14.18421052631584  C 16.552083333333343 13.930921052631563  16.625 13.716831140350905  16.770833333333343 13.541940789473642  C 16.916666666666657 13.367050438596493  17.09288194444443 13.216282894736764  17.299479166666657 13.089638157894683  C 17.506076388888914 12.962993421052602  17.712673611111086 12.82428728070181  17.919270833333343 12.673519736842081  C 18.12586805555557 12.522752192982466  18.302083333333343 12.30866228070181  18.447916666666657 12.03125  C 18.59375 11.75383771929819  18.666666666666657 11.41008771929819  18.666666666666657 11  C 18.666666666666657 10.58991228070181  18.59375 10.24616228070181  18.447916666666657 9.96875  C 18.302083333333343 9.69133771929819  18.12586805555557 9.477247807017534  17.919270833333343 9.326480263157919  C 17.712673611111086 9.17571271929819  17.506076388888914 9.037006578947398  17.299479166666657 8.910361842105317  C 17.09288194444443 8.783717105263236  16.916666666666657 8.632949561403507  16.770833333333343 8.458059210526358  C 16.625 8.283168859649095  16.552083333333343 8.069078947368439  16.552083333333343 7.815789473684163  C 16.552083333333343 7.490131578947398  16.667534722222214 7.215734649122737  16.8984375 6.99259868421052  C 17.129340277777786 6.76946271929819  17.402777777777786 6.65789473684208  17.71875 6.65789473684208  C 17.901041666666657 6.65789473684208  18.052951388888914 6.688048245614027  18.174479166666657 6.74835526315792  C 19.025173611111086 7.074013157894683  19.708767361111086 7.634868421052602  20.225260416666657 8.430921052631561  Z " fill-rule="nonzero" fill="rgba(127, 127, 127, 1)" stroke="none" transform="matrix(1 0 0 1 14 5 )" class="fill" />
    <path d="M 13.653645833333343 0.34375  C 13.884548611111086 0.5729166666666288  14 0.8442982456140272  14 1.1578947368420813  L 14 20.84210526315792  C 14 21.155701754385973  13.884548611111086 21.427083333333258  13.653645833333343 21.65625  C 13.422743055555571 21.885416666666742  13.149305555555557 22  12.833333333333343 22  C 12.517361111111088 22  12.243923611111086 21.885416666666742  12.013020833333343 21.65625  L 5.942708333333343 15.631578947368437  L 1.1666666666666572 15.631578947368437  C 0.8506944444444429 15.631578947368437  0.5772569444444429 15.516995614035068  0.3463541666666572 15.287828947368437  C 0.11545138888891415 15.05866228070181  0 14.787280701754414  0 14.473684210526358  L 0 7.526315789473643  C 0 7.212719298245588  0.11545138888891415 6.94133771929819  0.3463541666666572 6.712171052631561  C 0.5772569444444429 6.483004385964931  0.8506944444444429 6.368421052631561  1.1666666666666572 6.368421052631561  L 5.942708333333343 6.368421052631561  L 12.013020833333343 0.34375  C 12.243923611111086 0.11458333333337123  12.517361111111088 0  12.833333333333343 0  C 13.149305555555557 0  13.422743055555571 0.11458333333337123  13.653645833333343 0.34375  Z " stroke-width="0" stroke-dasharray="0" stroke="rgba(121, 121, 121, 1)" fill="none" transform="matrix(1 0 0 1 14 5 )" class="stroke" mask="url(#Clip97)" />
    <path d="M 20.225260416666657 8.430921052631561  C 20.741753472222214 9.22697368421052  21 10.083333333333258  21 11  C 21 11.916666666666742  20.741753472222214 12.770010964912217  20.225260416666657 13.560032894736764  C 19.708767361111086 14.350054824561425  19.025173611111086 14.913925438596493  18.174479166666657 15.251644736842081  C 18.052951388888914 15.311951754385973  17.901041666666657 15.342105263157919  17.71875 15.342105263157919  C 17.402777777777786 15.342105263157919  17.129340277777786 15.23053728070181  16.8984375 15.00740131578948  C 16.667534722222214 14.784265350877265  16.552083333333343 14.509868421052602  16.552083333333343 14.18421052631584  C 16.552083333333343 13.930921052631563  16.625 13.716831140350905  16.770833333333343 13.541940789473642  C 16.916666666666657 13.367050438596493  17.09288194444443 13.216282894736764  17.299479166666657 13.089638157894683  C 17.506076388888914 12.962993421052602  17.712673611111086 12.82428728070181  17.919270833333343 12.673519736842081  C 18.12586805555557 12.522752192982466  18.302083333333343 12.30866228070181  18.447916666666657 12.03125  C 18.59375 11.75383771929819  18.666666666666657 11.41008771929819  18.666666666666657 11  C 18.666666666666657 10.58991228070181  18.59375 10.24616228070181  18.447916666666657 9.96875  C 18.302083333333343 9.69133771929819  18.12586805555557 9.477247807017534  17.919270833333343 9.326480263157919  C 17.712673611111086 9.17571271929819  17.506076388888914 9.037006578947398  17.299479166666657 8.910361842105317  C 17.09288194444443 8.783717105263236  16.916666666666657 8.632949561403507  16.770833333333343 8.458059210526358  C 16.625 8.283168859649095  16.552083333333343 8.069078947368439  16.552083333333343 7.815789473684163  C 16.552083333333343 7.490131578947398  16.667534722222214 7.215734649122737  16.8984375 6.99259868421052  C 17.129340277777786 6.76946271929819  17.402777777777786 6.65789473684208  17.71875 6.65789473684208  C 17.901041666666657 6.65789473684208  18.052951388888914 6.688048245614027  18.174479166666657 6.74835526315792  C 19.025173611111086 7.074013157894683  19.708767361111086 7.634868421052602  20.225260416666657 8.430921052631561  Z " stroke-width="0" stroke-dasharray="0" stroke="rgba(121, 121, 121, 1)" fill="none" transform="matrix(1 0 0 1 14 5 )" class="stroke" mask="url(#Clip97)" />
  </g>
</svg>