<?xml version="1.0" encoding="utf-8"?>
<svg version="1.1" xmlns:xlink="http://www.w3.org/1999/xlink" width="22px" height="19px" xmlns="http://www.w3.org/2000/svg">
  <defs>
    <pattern id="BGPattern" patternUnits="userSpaceOnUse" alignment="0 0" imageRepeat="None" />
    <mask fill="white" id="Clip96">
      <path d="M 7.396763392857167 6.797200520833371  C 7.703683035714334 7.1064453125  7.857142857142833 7.479600694444343  7.857142857142833 7.916666666666629  C 7.857142857142833 8.353732638888914  7.703683035714334 8.726888020833371  7.396763392857167 9.0361328125  C 7.08984375 9.345377604166629  6.719494047619094 9.5  6.285714285714334 9.5  C 5.851934523809547 9.5  5.481584821428498 9.345377604166629  5.174665178571502 9.0361328125  C 4.867745535714334 8.726888020833371  4.714285714285666 8.353732638888914  4.714285714285666 7.916666666666629  C 4.714285714285666 7.479600694444343  4.867745535714334 7.1064453125  5.174665178571502 6.797200520833371  C 5.481584821428498 6.487955729166629  5.851934523809547 6.333333333333371  6.285714285714334 6.333333333333371  C 6.719494047619094 6.333333333333371  7.08984375 6.487955729166629  7.396763392857167 6.797200520833371  Z M 12.111049107142831 6.797200520833371  C 12.41796875 7.1064453125  12.571428571428498 7.479600694444343  12.571428571428498 7.916666666666629  C 12.571428571428498 8.353732638888914  12.41796875 8.726888020833371  12.111049107142831 9.0361328125  C 11.804129464285666 9.345377604166629  11.433779761904788 9.5  11 9.5  C 10.566220238095212 9.5  10.195870535714334 9.345377604166629  9.888950892857167 9.0361328125  C 9.58203125 8.726888020833371  9.428571428571502 8.353732638888914  9.428571428571502 7.916666666666629  C 9.428571428571502 7.479600694444343  9.58203125 7.1064453125  9.888950892857167 6.797200520833371  C 10.195870535714334 6.487955729166629  10.566220238095212 6.333333333333371  11 6.333333333333371  C 11.433779761904788 6.333333333333371  11.804129464285666 6.487955729166629  12.111049107142831 6.797200520833371  Z M 16.8253348214285 6.797200520833371  C 17.132254464285666 7.1064453125  17.285714285714334 7.479600694444343  17.285714285714334 7.916666666666629  C 17.285714285714334 8.353732638888914  17.132254464285666 8.726888020833371  16.8253348214285 9.0361328125  C 16.5184151785715 9.345377604166629  16.148065476190453 9.5  15.714285714285666 9.5  C 15.280505952380906 9.5  14.91015625 9.345377604166629  14.603236607142831 9.0361328125  C 14.296316964285666 8.726888020833371  14.142857142857169 8.353732638888914  14.142857142857169 7.916666666666629  C 14.142857142857169 7.479600694444343  14.296316964285666 7.1064453125  14.603236607142831 6.797200520833371  C 14.91015625 6.487955729166629  15.280505952380906 6.333333333333371  15.714285714285666 6.333333333333371  C 16.148065476190453 6.333333333333371  16.5184151785715 6.487955729166629  16.8253348214285 6.797200520833371  Z M 15.68359375 2.4430338541666283  C 14.230840773809547 1.8699001736110858  12.669642857142831 1.5833333333333712  11 1.5833333333333712  C 9.330357142857167 1.5833333333333712  7.769159226190453 1.8699001736110858  6.31640625 2.4430338541666283  C 4.863653273809547 3.0161675347222854  3.709635416666714 3.789279513888914  2.854352678571502 4.762369791666629  C 1.999069940476204 5.735460069444343  1.5714285714284983 6.786892361111086  1.5714285714284983 7.916666666666629  C 1.5714285714284983 8.840277777777715  1.8640252976190936 9.720594618055657  2.44921875 10.5576171875  C 3.034412202380907 11.394639756944343  3.859002976190453 12.118272569444343  4.922991071428498 12.728515625  L 5.991071428571502 13.347005208333371  L 5.659598214285666 14.534505208333371  C 5.463169642857167 15.284939236111086  5.176711309523796 15.994140625  4.800223214285666 16.662109375  C 6.044270833333287 16.142578125  7.169642857142833 15.4375  8.176339285714334 14.546875  L 8.704241071428498 14.076822916666629  L 9.404017857142833 14.151041666666629  C 9.96875 14.217013888888914  10.500744047619094 14.25  11 14.25  C 12.669642857142831 14.25  14.230840773809547 13.963433159722285  15.68359375 13.390299479166629  C 17.136346726190453 12.817165798611086  18.290364583333286 12.044053819444343  19.1456473214285 11.070963541666629  C 20.000930059523796 10.097873263888914  20.4285714285715 9.046440972222285  20.4285714285715 7.916666666666629  C 20.4285714285715 6.786892361111086  20.000930059523796 5.735460069444343  19.1456473214285 4.762369791666629  C 18.290364583333286 3.789279513888914  17.136346726190453 3.0161675347222854  15.68359375 2.4430338541666283  Z M 21.128348214285666 4.8427734375  C 21.709449404761926 5.819986979166629  22 6.844618055555657  22 7.916666666666629  C 22 9.3515625  21.5089285714285 10.677191840277715  20.526785714285666 11.8935546875  C 19.544642857142833 13.109917534722285  18.210565476190453 14.070638020833371  16.5245535714285 14.775716145833371  C 14.838541666666714 15.480794270833371  12.997023809523796 15.833333333333371  11 15.833333333333371  C 10.427083333333286 15.833333333333371  9.833705357142833 15.800347222222285  9.219866071428498 15.734375  C 7.599330357142833 17.177517361111086  5.71688988095238 18.175347222222285  3.572544642857167 18.72786458333337  C 3.171502976190453 18.843315972222285  2.7049851190476204 18.934027777777715  2.1729910714284983 19  L 2.111607142857167 19  C 1.9888392857143344 19  1.8783482142856656 18.95670572916663  1.7801339285715017 18.8701171875  C 1.6819196428571672 18.78352864583337  1.6164434523809064 18.670138888888914  1.5837053571428328 18.52994791666663  L 1.5837053571428328 18.517578125  C 1.5591517857143344 18.484592013888914  1.5571056547619266 18.435112847222285  1.5775669642856656 18.369140625  C 1.5980282738095466 18.303168402777715  1.6062127976190936 18.261935763888914  1.6021205357143344 18.24544270833337  C 1.5980282738095466 18.228949652777715  1.6164434523809064 18.18977864583337  1.6573660714284983 18.1279296875  L 1.7310267857143344 18.0166015625  C 1.7310267857143344 18.0166015625  1.7596726190476204 17.981553819444343  1.8169642857143344 17.91145833333337  C 1.8742559523809064 17.841362847222285  1.9069940476190936 17.804253472222285  1.9151785714284983 17.80013020833337  C 1.9724702380952124 17.734157986111086  2.099330357142833 17.591905381944343  2.2957589285715017 17.37337239583337  C 2.4921875 17.154839409722285  2.6333705357143344 16.998155381944343  2.7193080357143344 16.9033203125  C 2.8052455357143344 16.808485243055657  2.9321056547619264 16.645616319444343  3.099888392857167 16.41471354166663  C 3.26767113095238 16.183810763888914  3.400669642857167 15.973524305555657  3.498883928571502 15.783854166666629  C 3.5970982142856656 15.594184027777715  3.7075892857143344 15.350911458333371  3.830357142857167 15.054036458333371  C 3.953125 14.757161458333371  4.059523809523796 14.443793402777715  4.149553571428498 14.113932291666629  C 2.864583333333286 13.379991319444343  1.8517485119047876 12.472873263888914  1.1110491071428328 11.392578125  C 0.37034970238090636 10.312282986111086  0 9.153645833333371  0 7.916666666666629  C 0 6.844618055555657  0.2905505952380736 5.819986979166629  0.8716517857143343 4.8427734375  C 1.4527529761904534 3.8655598958333717  2.234375 3.0223524305556566  3.216517857142833 2.3131510416666288  C 4.198660714285666 1.6039496527777146  5.36904761904762 1.0411241319443434  6.727678571428498 0.6246744791666288  C 8.086309523809547 0.20822482638891415  9.510416666666714 0  11 0  C 12.489583333333286 0  13.913690476190453 0.20822482638891415  15.272321428571502 0.6246744791666288  C 16.63095238095238 1.0411241319443434  17.801339285714334 1.6039496527777146  18.783482142857167 2.3131510416666288  C 19.765625 3.0223524305556566  20.547247023809547 3.8655598958333717  21.128348214285666 4.8427734375  Z " fill-rule="evenodd" />
    </mask>
  </defs>
  <g transform="matrix(1 0 0 1 -353 -84 )">
    <path d="M 7.396763392857167 6.797200520833371  C 7.703683035714334 7.1064453125  7.857142857142833 7.479600694444343  7.857142857142833 7.916666666666629  C 7.857142857142833 8.353732638888914  7.703683035714334 8.726888020833371  7.396763392857167 9.0361328125  C 7.08984375 9.345377604166629  6.719494047619094 9.5  6.285714285714334 9.5  C 5.851934523809547 9.5  5.481584821428498 9.345377604166629  5.174665178571502 9.0361328125  C 4.867745535714334 8.726888020833371  4.714285714285666 8.353732638888914  4.714285714285666 7.916666666666629  C 4.714285714285666 7.479600694444343  4.867745535714334 7.1064453125  5.174665178571502 6.797200520833371  C 5.481584821428498 6.487955729166629  5.851934523809547 6.333333333333371  6.285714285714334 6.333333333333371  C 6.719494047619094 6.333333333333371  7.08984375 6.487955729166629  7.396763392857167 6.797200520833371  Z M 12.111049107142831 6.797200520833371  C 12.41796875 7.1064453125  12.571428571428498 7.479600694444343  12.571428571428498 7.916666666666629  C 12.571428571428498 8.353732638888914  12.41796875 8.726888020833371  12.111049107142831 9.0361328125  C 11.804129464285666 9.345377604166629  11.433779761904788 9.5  11 9.5  C 10.566220238095212 9.5  10.195870535714334 9.345377604166629  9.888950892857167 9.0361328125  C 9.58203125 8.726888020833371  9.428571428571502 8.353732638888914  9.428571428571502 7.916666666666629  C 9.428571428571502 7.479600694444343  9.58203125 7.1064453125  9.888950892857167 6.797200520833371  C 10.195870535714334 6.487955729166629  10.566220238095212 6.333333333333371  11 6.333333333333371  C 11.433779761904788 6.333333333333371  11.804129464285666 6.487955729166629  12.111049107142831 6.797200520833371  Z M 16.8253348214285 6.797200520833371  C 17.132254464285666 7.1064453125  17.285714285714334 7.479600694444343  17.285714285714334 7.916666666666629  C 17.285714285714334 8.353732638888914  17.132254464285666 8.726888020833371  16.8253348214285 9.0361328125  C 16.5184151785715 9.345377604166629  16.148065476190453 9.5  15.714285714285666 9.5  C 15.280505952380906 9.5  14.91015625 9.345377604166629  14.603236607142831 9.0361328125  C 14.296316964285666 8.726888020833371  14.142857142857169 8.353732638888914  14.142857142857169 7.916666666666629  C 14.142857142857169 7.479600694444343  14.296316964285666 7.1064453125  14.603236607142831 6.797200520833371  C 14.91015625 6.487955729166629  15.280505952380906 6.333333333333371  15.714285714285666 6.333333333333371  C 16.148065476190453 6.333333333333371  16.5184151785715 6.487955729166629  16.8253348214285 6.797200520833371  Z M 15.68359375 2.4430338541666283  C 14.230840773809547 1.8699001736110858  12.669642857142831 1.5833333333333712  11 1.5833333333333712  C 9.330357142857167 1.5833333333333712  7.769159226190453 1.8699001736110858  6.31640625 2.4430338541666283  C 4.863653273809547 3.0161675347222854  3.709635416666714 3.789279513888914  2.854352678571502 4.762369791666629  C 1.999069940476204 5.735460069444343  1.5714285714284983 6.786892361111086  1.5714285714284983 7.916666666666629  C 1.5714285714284983 8.840277777777715  1.8640252976190936 9.720594618055657  2.44921875 10.5576171875  C 3.034412202380907 11.394639756944343  3.859002976190453 12.118272569444343  4.922991071428498 12.728515625  L 5.991071428571502 13.347005208333371  L 5.659598214285666 14.534505208333371  C 5.463169642857167 15.284939236111086  5.176711309523796 15.994140625  4.800223214285666 16.662109375  C 6.044270833333287 16.142578125  7.169642857142833 15.4375  8.176339285714334 14.546875  L 8.704241071428498 14.076822916666629  L 9.404017857142833 14.151041666666629  C 9.96875 14.217013888888914  10.500744047619094 14.25  11 14.25  C 12.669642857142831 14.25  14.230840773809547 13.963433159722285  15.68359375 13.390299479166629  C 17.136346726190453 12.817165798611086  18.290364583333286 12.044053819444343  19.1456473214285 11.070963541666629  C 20.000930059523796 10.097873263888914  20.4285714285715 9.046440972222285  20.4285714285715 7.916666666666629  C 20.4285714285715 6.786892361111086  20.000930059523796 5.735460069444343  19.1456473214285 4.762369791666629  C 18.290364583333286 3.789279513888914  17.136346726190453 3.0161675347222854  15.68359375 2.4430338541666283  Z M 21.128348214285666 4.8427734375  C 21.709449404761926 5.819986979166629  22 6.844618055555657  22 7.916666666666629  C 22 9.3515625  21.5089285714285 10.677191840277715  20.526785714285666 11.8935546875  C 19.544642857142833 13.109917534722285  18.210565476190453 14.070638020833371  16.5245535714285 14.775716145833371  C 14.838541666666714 15.480794270833371  12.997023809523796 15.833333333333371  11 15.833333333333371  C 10.427083333333286 15.833333333333371  9.833705357142833 15.800347222222285  9.219866071428498 15.734375  C 7.599330357142833 17.177517361111086  5.71688988095238 18.175347222222285  3.572544642857167 18.72786458333337  C 3.171502976190453 18.843315972222285  2.7049851190476204 18.934027777777715  2.1729910714284983 19  L 2.111607142857167 19  C 1.9888392857143344 19  1.8783482142856656 18.95670572916663  1.7801339285715017 18.8701171875  C 1.6819196428571672 18.78352864583337  1.6164434523809064 18.670138888888914  1.5837053571428328 18.52994791666663  L 1.5837053571428328 18.517578125  C 1.5591517857143344 18.484592013888914  1.5571056547619266 18.435112847222285  1.5775669642856656 18.369140625  C 1.5980282738095466 18.303168402777715  1.6062127976190936 18.261935763888914  1.6021205357143344 18.24544270833337  C 1.5980282738095466 18.228949652777715  1.6164434523809064 18.18977864583337  1.6573660714284983 18.1279296875  L 1.7310267857143344 18.0166015625  C 1.7310267857143344 18.0166015625  1.7596726190476204 17.981553819444343  1.8169642857143344 17.91145833333337  C 1.8742559523809064 17.841362847222285  1.9069940476190936 17.804253472222285  1.9151785714284983 17.80013020833337  C 1.9724702380952124 17.734157986111086  2.099330357142833 17.591905381944343  2.2957589285715017 17.37337239583337  C 2.4921875 17.154839409722285  2.6333705357143344 16.998155381944343  2.7193080357143344 16.9033203125  C 2.8052455357143344 16.808485243055657  2.9321056547619264 16.645616319444343  3.099888392857167 16.41471354166663  C 3.26767113095238 16.183810763888914  3.400669642857167 15.973524305555657  3.498883928571502 15.783854166666629  C 3.5970982142856656 15.594184027777715  3.7075892857143344 15.350911458333371  3.830357142857167 15.054036458333371  C 3.953125 14.757161458333371  4.059523809523796 14.443793402777715  4.149553571428498 14.113932291666629  C 2.864583333333286 13.379991319444343  1.8517485119047876 12.472873263888914  1.1110491071428328 11.392578125  C 0.37034970238090636 10.312282986111086  0 9.153645833333371  0 7.916666666666629  C 0 6.844618055555657  0.2905505952380736 5.819986979166629  0.8716517857143343 4.8427734375  C 1.4527529761904534 3.8655598958333717  2.234375 3.0223524305556566  3.216517857142833 2.3131510416666288  C 4.198660714285666 1.6039496527777146  5.36904761904762 1.0411241319443434  6.727678571428498 0.6246744791666288  C 8.086309523809547 0.20822482638891415  9.510416666666714 0  11 0  C 12.489583333333286 0  13.913690476190453 0.20822482638891415  15.272321428571502 0.6246744791666288  C 16.63095238095238 1.0411241319443434  17.801339285714334 1.6039496527777146  18.783482142857167 2.3131510416666288  C 19.765625 3.0223524305556566  20.547247023809547 3.8655598958333717  21.128348214285666 4.8427734375  Z " fill-rule="nonzero" fill="rgba(51, 51, 51, 1)" stroke="none" transform="matrix(1 0 0 1 353 84 )" class="fill" />
    <path d="M 7.396763392857167 6.797200520833371  C 7.703683035714334 7.1064453125  7.857142857142833 7.479600694444343  7.857142857142833 7.916666666666629  C 7.857142857142833 8.353732638888914  7.703683035714334 8.726888020833371  7.396763392857167 9.0361328125  C 7.08984375 9.345377604166629  6.719494047619094 9.5  6.285714285714334 9.5  C 5.851934523809547 9.5  5.481584821428498 9.345377604166629  5.174665178571502 9.0361328125  C 4.867745535714334 8.726888020833371  4.714285714285666 8.353732638888914  4.714285714285666 7.916666666666629  C 4.714285714285666 7.479600694444343  4.867745535714334 7.1064453125  5.174665178571502 6.797200520833371  C 5.481584821428498 6.487955729166629  5.851934523809547 6.333333333333371  6.285714285714334 6.333333333333371  C 6.719494047619094 6.333333333333371  7.08984375 6.487955729166629  7.396763392857167 6.797200520833371  Z " stroke-width="0" stroke-dasharray="0" stroke="rgba(121, 121, 121, 1)" fill="none" transform="matrix(1 0 0 1 353 84 )" class="stroke" mask="url(#Clip96)" />
    <path d="M 12.111049107142831 6.797200520833371  C 12.41796875 7.1064453125  12.571428571428498 7.479600694444343  12.571428571428498 7.916666666666629  C 12.571428571428498 8.353732638888914  12.41796875 8.726888020833371  12.111049107142831 9.0361328125  C 11.804129464285666 9.345377604166629  11.433779761904788 9.5  11 9.5  C 10.566220238095212 9.5  10.195870535714334 9.345377604166629  9.888950892857167 9.0361328125  C 9.58203125 8.726888020833371  9.428571428571502 8.353732638888914  9.428571428571502 7.916666666666629  C 9.428571428571502 7.479600694444343  9.58203125 7.1064453125  9.888950892857167 6.797200520833371  C 10.195870535714334 6.487955729166629  10.566220238095212 6.333333333333371  11 6.333333333333371  C 11.433779761904788 6.333333333333371  11.804129464285666 6.487955729166629  12.111049107142831 6.797200520833371  Z " stroke-width="0" stroke-dasharray="0" stroke="rgba(121, 121, 121, 1)" fill="none" transform="matrix(1 0 0 1 353 84 )" class="stroke" mask="url(#Clip96)" />
    <path d="M 16.8253348214285 6.797200520833371  C 17.132254464285666 7.1064453125  17.285714285714334 7.479600694444343  17.285714285714334 7.916666666666629  C 17.285714285714334 8.353732638888914  17.132254464285666 8.726888020833371  16.8253348214285 9.0361328125  C 16.5184151785715 9.345377604166629  16.148065476190453 9.5  15.714285714285666 9.5  C 15.280505952380906 9.5  14.91015625 9.345377604166629  14.603236607142831 9.0361328125  C 14.296316964285666 8.726888020833371  14.142857142857169 8.353732638888914  14.142857142857169 7.916666666666629  C 14.142857142857169 7.479600694444343  14.296316964285666 7.1064453125  14.603236607142831 6.797200520833371  C 14.91015625 6.487955729166629  15.280505952380906 6.333333333333371  15.714285714285666 6.333333333333371  C 16.148065476190453 6.333333333333371  16.5184151785715 6.487955729166629  16.8253348214285 6.797200520833371  Z " stroke-width="0" stroke-dasharray="0" stroke="rgba(121, 121, 121, 1)" fill="none" transform="matrix(1 0 0 1 353 84 )" class="stroke" mask="url(#Clip96)" />
    <path d="M 15.68359375 2.4430338541666283  C 14.230840773809547 1.8699001736110858  12.669642857142831 1.5833333333333712  11 1.5833333333333712  C 9.330357142857167 1.5833333333333712  7.769159226190453 1.8699001736110858  6.31640625 2.4430338541666283  C 4.863653273809547 3.0161675347222854  3.709635416666714 3.789279513888914  2.854352678571502 4.762369791666629  C 1.999069940476204 5.735460069444343  1.5714285714284983 6.786892361111086  1.5714285714284983 7.916666666666629  C 1.5714285714284983 8.840277777777715  1.8640252976190936 9.720594618055657  2.44921875 10.5576171875  C 3.034412202380907 11.394639756944343  3.859002976190453 12.118272569444343  4.922991071428498 12.728515625  L 5.991071428571502 13.347005208333371  L 5.659598214285666 14.534505208333371  C 5.463169642857167 15.284939236111086  5.176711309523796 15.994140625  4.800223214285666 16.662109375  C 6.044270833333287 16.142578125  7.169642857142833 15.4375  8.176339285714334 14.546875  L 8.704241071428498 14.076822916666629  L 9.404017857142833 14.151041666666629  C 9.96875 14.217013888888914  10.500744047619094 14.25  11 14.25  C 12.669642857142831 14.25  14.230840773809547 13.963433159722285  15.68359375 13.390299479166629  C 17.136346726190453 12.817165798611086  18.290364583333286 12.044053819444343  19.1456473214285 11.070963541666629  C 20.000930059523796 10.097873263888914  20.4285714285715 9.046440972222285  20.4285714285715 7.916666666666629  C 20.4285714285715 6.786892361111086  20.000930059523796 5.735460069444343  19.1456473214285 4.762369791666629  C 18.290364583333286 3.789279513888914  17.136346726190453 3.0161675347222854  15.68359375 2.4430338541666283  Z " stroke-width="0" stroke-dasharray="0" stroke="rgba(121, 121, 121, 1)" fill="none" transform="matrix(1 0 0 1 353 84 )" class="stroke" mask="url(#Clip96)" />
    <path d="M 21.128348214285666 4.8427734375  C 21.709449404761926 5.819986979166629  22 6.844618055555657  22 7.916666666666629  C 22 9.3515625  21.5089285714285 10.677191840277715  20.526785714285666 11.8935546875  C 19.544642857142833 13.109917534722285  18.210565476190453 14.070638020833371  16.5245535714285 14.775716145833371  C 14.838541666666714 15.480794270833371  12.997023809523796 15.833333333333371  11 15.833333333333371  C 10.427083333333286 15.833333333333371  9.833705357142833 15.800347222222285  9.219866071428498 15.734375  C 7.599330357142833 17.177517361111086  5.71688988095238 18.175347222222285  3.572544642857167 18.72786458333337  C 3.171502976190453 18.843315972222285  2.7049851190476204 18.934027777777715  2.1729910714284983 19  L 2.111607142857167 19  C 1.9888392857143344 19  1.8783482142856656 18.95670572916663  1.7801339285715017 18.8701171875  C 1.6819196428571672 18.78352864583337  1.6164434523809064 18.670138888888914  1.5837053571428328 18.52994791666663  L 1.5837053571428328 18.517578125  C 1.5591517857143344 18.484592013888914  1.5571056547619266 18.435112847222285  1.5775669642856656 18.369140625  C 1.5980282738095466 18.303168402777715  1.6062127976190936 18.261935763888914  1.6021205357143344 18.24544270833337  C 1.5980282738095466 18.228949652777715  1.6164434523809064 18.18977864583337  1.6573660714284983 18.1279296875  L 1.7310267857143344 18.0166015625  C 1.7310267857143344 18.0166015625  1.7596726190476204 17.981553819444343  1.8169642857143344 17.91145833333337  C 1.8742559523809064 17.841362847222285  1.9069940476190936 17.804253472222285  1.9151785714284983 17.80013020833337  C 1.9724702380952124 17.734157986111086  2.099330357142833 17.591905381944343  2.2957589285715017 17.37337239583337  C 2.4921875 17.154839409722285  2.6333705357143344 16.998155381944343  2.7193080357143344 16.9033203125  C 2.8052455357143344 16.808485243055657  2.9321056547619264 16.645616319444343  3.099888392857167 16.41471354166663  C 3.26767113095238 16.183810763888914  3.400669642857167 15.973524305555657  3.498883928571502 15.783854166666629  C 3.5970982142856656 15.594184027777715  3.7075892857143344 15.350911458333371  3.830357142857167 15.054036458333371  C 3.953125 14.757161458333371  4.059523809523796 14.443793402777715  4.149553571428498 14.113932291666629  C 2.864583333333286 13.379991319444343  1.8517485119047876 12.472873263888914  1.1110491071428328 11.392578125  C 0.37034970238090636 10.312282986111086  0 9.153645833333371  0 7.916666666666629  C 0 6.844618055555657  0.2905505952380736 5.819986979166629  0.8716517857143343 4.8427734375  C 1.4527529761904534 3.8655598958333717  2.234375 3.0223524305556566  3.216517857142833 2.3131510416666288  C 4.198660714285666 1.6039496527777146  5.36904761904762 1.0411241319443434  6.727678571428498 0.6246744791666288  C 8.086309523809547 0.20822482638891415  9.510416666666714 0  11 0  C 12.489583333333286 0  13.913690476190453 0.20822482638891415  15.272321428571502 0.6246744791666288  C 16.63095238095238 1.0411241319443434  17.801339285714334 1.6039496527777146  18.783482142857167 2.3131510416666288  C 19.765625 3.0223524305556566  20.547247023809547 3.8655598958333717  21.128348214285666 4.8427734375  Z " stroke-width="0" stroke-dasharray="0" stroke="rgba(121, 121, 121, 1)" fill="none" transform="matrix(1 0 0 1 353 84 )" class="stroke" mask="url(#Clip96)" />
  </g>
</svg>