<?xml version="1.0" encoding="utf-8"?>
<svg version="1.1" xmlns:xlink="http://www.w3.org/1999/xlink" width="18px" height="15px" xmlns="http://www.w3.org/2000/svg">
  <defs>
    <pattern id="BGPattern" patternUnits="userSpaceOnUse" alignment="0 0" imageRepeat="None" />
    <mask fill="white" id="Clip98">
      <path d="M 17.777343750000032 12.222656250000071  C 17.925781249999986 12.371093749999977  18 12.546874999999977  18 12.750000000000071  L 18 14.249999999999964  C 18 14.453125000000059  17.925781249999986 14.628906250000059  17.777343750000032 14.777343749999964  C 17.628906249999982 14.925781249999957  17.453124999999982 15  17.250000000000032 15  L 0.7499999999999806 15  C 0.5468750000000181 15  0.3710937500000181 14.925781249999957  0.22265624999998063 14.777343749999964  C 0.0742187500000013 14.628906250000059  0 14.453125000000059  0 14.249999999999964  L 0 12.750000000000071  C 0 12.546874999999977  0.0742187500000013 12.371093749999977  0.22265624999998063 12.222656250000071  C 0.3710937500000181 12.074218749999988  0.5468750000000181 12.000000000000036  0.7499999999999806 12  L 17.250000000000032 12  C 17.453124999999982 12.000000000000036  17.628906249999982 12.074218749999988  17.777343750000032 12.222656250000071  Z M 17.777343750000032 6.2226562499999645  C 17.925781249999986 6.371093749999958  18 6.546874999999958  18 6.7499999999999645  L 18 8.250000000000036  C 18 8.453125000000043  17.925781249999986 8.628906250000043  17.777343750000032 8.777343750000036  C 17.628906249999982 8.925781249999941  17.453124999999982 9.000000000000071  17.250000000000032 9  L 0.7499999999999806 9  C 0.5468750000000181 9.000000000000071  0.3710937500000181 8.925781249999941  0.22265624999998063 8.777343750000036  C 0.0742187500000013 8.628906250000043  0 8.453125000000043  0 8.250000000000036  L 0 6.7499999999999645  C 0 6.546874999999958  0.0742187500000013 6.371093749999958  0.22265624999998063 6.2226562499999645  C 0.3710937500000181 6.07421875000006  0.5468750000000181 5.999999999999928  0.7499999999999806 6  L 17.250000000000032 6  C 17.453124999999982 5.999999999999928  17.628906249999982 6.07421875000006  17.777343750000032 6.2226562499999645  Z M 17.777343750000032 0.2226562500000359  C 17.925781249999986 0.37109374999994016  18 0.5468749999999402  18 0.750000000000036  L 18 2.2499999999999285  C 18 2.453125000000024  17.925781249999986 2.628906250000024  17.777343750000032 2.7773437499999285  C 17.628906249999982 2.925781250000012  17.453124999999982 2.999999999999964  17.250000000000032 3  L 0.7499999999999806 3  C 0.5468750000000181 2.999999999999964  0.3710937500000181 2.925781250000012  0.22265624999998063 2.7773437499999285  C 0.0742187500000013 2.628906250000024  0 2.453125000000024  0 2.2499999999999285  L 0 0.750000000000036  C 0 0.5468749999999402  0.0742187500000013 0.37109374999994016  0.22265624999998063 0.2226562500000359  C 0.3710937500000181 0.07421875000004188  0.5468750000000181 0  0.7499999999999806 0  L 17.250000000000032 0  C 17.453124999999982 0  17.628906249999982 0.07421875000004188  17.777343750000032 0.2226562500000359  Z " fill-rule="evenodd" />
    </mask>
  </defs>
  <g transform="matrix(1 0 0 1 -346 -9 )">
    <path d="M 17.777343750000032 12.222656250000071  C 17.925781249999986 12.371093749999977  18 12.546874999999977  18 12.750000000000071  L 18 14.249999999999964  C 18 14.453125000000059  17.925781249999986 14.628906250000059  17.777343750000032 14.777343749999964  C 17.628906249999982 14.925781249999957  17.453124999999982 15  17.250000000000032 15  L 0.7499999999999806 15  C 0.5468750000000181 15  0.3710937500000181 14.925781249999957  0.22265624999998063 14.777343749999964  C 0.0742187500000013 14.628906250000059  0 14.453125000000059  0 14.249999999999964  L 0 12.750000000000071  C 0 12.546874999999977  0.0742187500000013 12.371093749999977  0.22265624999998063 12.222656250000071  C 0.3710937500000181 12.074218749999988  0.5468750000000181 12.000000000000036  0.7499999999999806 12  L 17.250000000000032 12  C 17.453124999999982 12.000000000000036  17.628906249999982 12.074218749999988  17.777343750000032 12.222656250000071  Z M 17.777343750000032 6.2226562499999645  C 17.925781249999986 6.371093749999958  18 6.546874999999958  18 6.7499999999999645  L 18 8.250000000000036  C 18 8.453125000000043  17.925781249999986 8.628906250000043  17.777343750000032 8.777343750000036  C 17.628906249999982 8.925781249999941  17.453124999999982 9.000000000000071  17.250000000000032 9  L 0.7499999999999806 9  C 0.5468750000000181 9.000000000000071  0.3710937500000181 8.925781249999941  0.22265624999998063 8.777343750000036  C 0.0742187500000013 8.628906250000043  0 8.453125000000043  0 8.250000000000036  L 0 6.7499999999999645  C 0 6.546874999999958  0.0742187500000013 6.371093749999958  0.22265624999998063 6.2226562499999645  C 0.3710937500000181 6.07421875000006  0.5468750000000181 5.999999999999928  0.7499999999999806 6  L 17.250000000000032 6  C 17.453124999999982 5.999999999999928  17.628906249999982 6.07421875000006  17.777343750000032 6.2226562499999645  Z M 17.777343750000032 0.2226562500000359  C 17.925781249999986 0.37109374999994016  18 0.5468749999999402  18 0.750000000000036  L 18 2.2499999999999285  C 18 2.453125000000024  17.925781249999986 2.628906250000024  17.777343750000032 2.7773437499999285  C 17.628906249999982 2.925781250000012  17.453124999999982 2.999999999999964  17.250000000000032 3  L 0.7499999999999806 3  C 0.5468750000000181 2.999999999999964  0.3710937500000181 2.925781250000012  0.22265624999998063 2.7773437499999285  C 0.0742187500000013 2.628906250000024  0 2.453125000000024  0 2.2499999999999285  L 0 0.750000000000036  C 0 0.5468749999999402  0.0742187500000013 0.37109374999994016  0.22265624999998063 0.2226562500000359  C 0.3710937500000181 0.07421875000004188  0.5468750000000181 0  0.7499999999999806 0  L 17.250000000000032 0  C 17.453124999999982 0  17.628906249999982 0.07421875000004188  17.777343750000032 0.2226562500000359  Z " fill-rule="nonzero" fill="rgba(127, 127, 127, 1)" stroke="none" transform="matrix(1 0 0 1 346 9 )" class="fill" />
    <path d="M 17.777343750000032 12.222656250000071  C 17.925781249999986 12.371093749999977  18 12.546874999999977  18 12.750000000000071  L 18 14.249999999999964  C 18 14.453125000000059  17.925781249999986 14.628906250000059  17.777343750000032 14.777343749999964  C 17.628906249999982 14.925781249999957  17.453124999999982 15  17.250000000000032 15  L 0.7499999999999806 15  C 0.5468750000000181 15  0.3710937500000181 14.925781249999957  0.22265624999998063 14.777343749999964  C 0.0742187500000013 14.628906250000059  0 14.453125000000059  0 14.249999999999964  L 0 12.750000000000071  C 0 12.546874999999977  0.0742187500000013 12.371093749999977  0.22265624999998063 12.222656250000071  C 0.3710937500000181 12.074218749999988  0.5468750000000181 12.000000000000036  0.7499999999999806 12  L 17.250000000000032 12  C 17.453124999999982 12.000000000000036  17.628906249999982 12.074218749999988  17.777343750000032 12.222656250000071  Z " stroke-width="0" stroke-dasharray="0" stroke="rgba(121, 121, 121, 1)" fill="none" transform="matrix(1 0 0 1 346 9 )" class="stroke" mask="url(#Clip98)" />
    <path d="M 17.777343750000032 6.2226562499999645  C 17.925781249999986 6.371093749999958  18 6.546874999999958  18 6.7499999999999645  L 18 8.250000000000036  C 18 8.453125000000043  17.925781249999986 8.628906250000043  17.777343750000032 8.777343750000036  C 17.628906249999982 8.925781249999941  17.453124999999982 9.000000000000071  17.250000000000032 9  L 0.7499999999999806 9  C 0.5468750000000181 9.000000000000071  0.3710937500000181 8.925781249999941  0.22265624999998063 8.777343750000036  C 0.0742187500000013 8.628906250000043  0 8.453125000000043  0 8.250000000000036  L 0 6.7499999999999645  C 0 6.546874999999958  0.0742187500000013 6.371093749999958  0.22265624999998063 6.2226562499999645  C 0.3710937500000181 6.07421875000006  0.5468750000000181 5.999999999999928  0.7499999999999806 6  L 17.250000000000032 6  C 17.453124999999982 5.999999999999928  17.628906249999982 6.07421875000006  17.777343750000032 6.2226562499999645  Z " stroke-width="0" stroke-dasharray="0" stroke="rgba(121, 121, 121, 1)" fill="none" transform="matrix(1 0 0 1 346 9 )" class="stroke" mask="url(#Clip98)" />
    <path d="M 17.777343750000032 0.2226562500000359  C 17.925781249999986 0.37109374999994016  18 0.5468749999999402  18 0.750000000000036  L 18 2.2499999999999285  C 18 2.453125000000024  17.925781249999986 2.628906250000024  17.777343750000032 2.7773437499999285  C 17.628906249999982 2.925781250000012  17.453124999999982 2.999999999999964  17.250000000000032 3  L 0.7499999999999806 3  C 0.5468750000000181 2.999999999999964  0.3710937500000181 2.925781250000012  0.22265624999998063 2.7773437499999285  C 0.0742187500000013 2.628906250000024  0 2.453125000000024  0 2.2499999999999285  L 0 0.750000000000036  C 0 0.5468749999999402  0.0742187500000013 0.37109374999994016  0.22265624999998063 0.2226562500000359  C 0.3710937500000181 0.07421875000004188  0.5468750000000181 0  0.7499999999999806 0  L 17.250000000000032 0  C 17.453124999999982 0  17.628906249999982 0.07421875000004188  17.777343750000032 0.2226562500000359  Z " stroke-width="0" stroke-dasharray="0" stroke="rgba(121, 121, 121, 1)" fill="none" transform="matrix(1 0 0 1 346 9 )" class="stroke" mask="url(#Clip98)" />
  </g>
</svg>