<?xml version="1.0" encoding="utf-8"?>
<svg version="1.1" xmlns:xlink="http://www.w3.org/1999/xlink" width="17px" height="20px" xmlns="http://www.w3.org/2000/svg">
  <defs>
    <pattern id="BGPattern" patternUnits="userSpaceOnUse" alignment="0 0" imageRepeat="None" />
    <mask fill="white" id="Clip86">
      <path d="M 0 10  C 0 4.3999999999999995  3.7399999999999993 0  8.5 0  C 13.26 0  17 4.3999999999999995  17 10  C 17 15.600000000000001  13.26 20  8.5 20  C 3.7399999999999993 20  0 15.600000000000001  0 10  Z " fill-rule="evenodd" />
    </mask>
  </defs>
  <g transform="matrix(1 0 0 1 -785 -206 )">
    <path d="M 0 10  C 0 4.3999999999999995  3.7399999999999993 0  8.5 0  C 13.26 0  17 4.3999999999999995  17 10  C 17 15.600000000000001  13.26 20  8.5 20  C 3.7399999999999993 20  0 15.600000000000001  0 10  Z " fill-rule="nonzero" fill="rgba(255, 255, 255, 1)" stroke="none" transform="matrix(1 0 0 1 785 206 )" class="fill" />
    <path d="M 0 10  C 0 4.3999999999999995  3.7399999999999993 0  8.5 0  C 13.26 0  17 4.3999999999999995  17 10  C 17 15.600000000000001  13.26 20  8.5 20  C 3.7399999999999993 20  0 15.600000000000001  0 10  Z " stroke-width="2" stroke-dasharray="0" stroke="rgba(121, 121, 121, 1)" fill="none" transform="matrix(1 0 0 1 785 206 )" class="stroke" mask="url(#Clip86)" />
  </g>
</svg>