<?xml version="1.0" encoding="utf-8"?>
<svg version="1.1" xmlns:xlink="http://www.w3.org/1999/xlink" width="24px" height="32px" xmlns="http://www.w3.org/2000/svg">
  <defs>
    <pattern id="BGPattern" patternUnits="userSpaceOnUse" alignment="0 0" imageRepeat="None" />
    <mask fill="white" id="Clip149">
      <path d="M 24 11.199999999999989  C 24 19.19999999999999  16.799999999999955 24  12 32  C 7.2000000000000455 24  0 19.19999999999999  0 11.199999999999989  C 0 7.625653606769561  1.7718128890716116 1.9251317466531646  8.3601853064132 0.39091080732725914  C 9.439684505557693 0.1395300154713368  10.64849167668558 0  12 0  C 21.600000000000023 0  24 7.0400000000000205  24 11.199999999999989  Z " fill-rule="evenodd" />
    </mask>
  </defs>
  <g transform="matrix(1 0 0 1 -841 -950 )">
    <path d="M 24 11.199999999999989  C 24 19.19999999999999  16.799999999999955 24  12 32  C 7.2000000000000455 24  0 19.19999999999999  0 11.199999999999989  C 0 7.625653606769561  1.7718128890716116 1.9251317466531646  8.3601853064132 0.39091080732725914  C 9.439684505557693 0.1395300154713368  10.64849167668558 0  12 0  C 21.600000000000023 0  24 7.0400000000000205  24 11.199999999999989  Z " fill-rule="nonzero" fill="rgba(255, 51, 153, 0.2)" stroke="none" transform="matrix(1 0 0 1 841 950 )" class="fill" />
    <path d="M 24 11.199999999999989  C 24 19.19999999999999  16.799999999999955 24  12 32  C 7.2000000000000455 24  0 19.19999999999999  0 11.199999999999989  C 0 7.625653606769561  1.7718128890716116 1.9251317466531646  8.3601853064132 0.39091080732725914  C 9.439684505557693 0.1395300154713368  10.64849167668558 0  12 0  C 21.600000000000023 0  24 7.0400000000000205  24 11.199999999999989  Z " stroke-width="2" stroke-dasharray="0" stroke="rgba(255, 255, 255, 0)" fill="none" transform="matrix(1 0 0 1 841 950 )" class="stroke" mask="url(#Clip149)" />
  </g>
</svg>