<?xml version="1.0" encoding="utf-8"?>
<svg version="1.1" xmlns:xlink="http://www.w3.org/1999/xlink" width="24px" height="32px" xmlns="http://www.w3.org/2000/svg">
  <defs>
    <pattern id="BGPattern" patternUnits="userSpaceOnUse" alignment="0 0" imageRepeat="None" />
    <mask fill="white" id="Clip150">
      <path d="M 24 11.200000000000045  C 24 19.200000000000045  16.800000000000182 24  12 32  C 9.331244693892586 27.55207448982128  5.920587837381845 24.093351046847488  3.417990846508019 20.523855393718122  C 1.4194387328893754 17.673287320580698  0 14.752074489821325  0 11.200000000000045  C 0 7.625653606769561  1.771812889071498 1.9251317466531646  8.360185306413314 0.39091080732725914  C 9.43968450555758 0.1395300154713368  10.648491676685808 0  12 0  C 21.59999999999991 0  24 7.039999999999964  24 11.200000000000045  Z " fill-rule="evenodd" />
    </mask>
  </defs>
  <g transform="matrix(1 0 0 1 -841 -1741 )">
    <path d="M 24 11.200000000000045  C 24 19.200000000000045  16.800000000000182 24  12 32  C 9.331244693892586 27.55207448982128  5.920587837381845 24.093351046847488  3.417990846508019 20.523855393718122  C 1.4194387328893754 17.673287320580698  0 14.752074489821325  0 11.200000000000045  C 0 7.625653606769561  1.771812889071498 1.9251317466531646  8.360185306413314 0.39091080732725914  C 9.43968450555758 0.1395300154713368  10.648491676685808 0  12 0  C 21.59999999999991 0  24 7.039999999999964  24 11.200000000000045  Z " fill-rule="nonzero" fill="rgba(255, 51, 153, 0.2)" stroke="none" transform="matrix(1 0 0 1 841 1741 )" class="fill" />
    <path d="M 24 11.200000000000045  C 24 19.200000000000045  16.800000000000182 24  12 32  C 9.331244693892586 27.55207448982128  5.920587837381845 24.093351046847488  3.417990846508019 20.523855393718122  C 1.4194387328893754 17.673287320580698  0 14.752074489821325  0 11.200000000000045  C 0 7.625653606769561  1.771812889071498 1.9251317466531646  8.360185306413314 0.39091080732725914  C 9.43968450555758 0.1395300154713368  10.648491676685808 0  12 0  C 21.59999999999991 0  24 7.039999999999964  24 11.200000000000045  Z " stroke-width="2" stroke-dasharray="0" stroke="rgba(255, 255, 255, 0)" fill="none" transform="matrix(1 0 0 1 841 1741 )" class="stroke" mask="url(#Clip150)" />
  </g>
</svg>