<?xml version="1.0" encoding="utf-8"?>
<svg version="1.1" xmlns:xlink="http://www.w3.org/1999/xlink" width="578px" height="18px" xmlns="http://www.w3.org/2000/svg">
  <defs>
    <pattern id="BGPattern" patternUnits="userSpaceOnUse" alignment="0 0" imageRepeat="None" />
    <mask fill="white" id="Clip14">
      <path d="M 0 18  L 0 0  L 45.05913978494624 0  L 59.97872302825735 0  L 76.32169933023506 0  L 123.59174848059841 0  L 578 0  L 578 18  L 74.15220299262744 18  L 52.659069658719034 18  L 22.42638158942506 18  L 0 18  Z " fill-rule="evenodd" />
    </mask>
  </defs>
  <g transform="matrix(1 0 0 1 -59 -1775 )">
    <path d="M 0 18  L 0 0  L 45.05913978494624 0  L 59.97872302825735 0  L 76.32169933023506 0  L 123.59174848059841 0  L 578 0  L 578 18  L 74.15220299262744 18  L 52.659069658719034 18  L 22.42638158942506 18  L 0 18  Z " fill-rule="nonzero" fill="rgba(250, 205, 145, 1)" stroke="none" transform="matrix(1 0 0 1 59 1775 )" class="fill" />
    <path d="M 0 18  L 0 0  L 45.05913978494624 0  L 59.97872302825735 0  L 76.32169933023506 0  L 123.59174848059841 0  L 578 0  L 578 18  L 74.15220299262744 18  L 52.659069658719034 18  L 22.42638158942506 18  L 0 18  Z " stroke-width="0" stroke-dasharray="0" stroke="rgba(121, 121, 121, 1)" fill="none" transform="matrix(1 0 0 1 59 1775 )" class="stroke" mask="url(#Clip14)" />
  </g>
</svg>