<?xml version="1.0" encoding="utf-8"?>
<svg version="1.1" xmlns:xlink="http://www.w3.org/1999/xlink" width="78px" height="75px" xmlns="http://www.w3.org/2000/svg">
  <defs>
    <pattern id="BGPattern" patternUnits="userSpaceOnUse" alignment="0 0" imageRepeat="None" />
    <mask fill="white" id="Clip18">
      <path d="M 0 37.5  C 0 16.499999999999996  17.159999999999997 0  39 0  C 60.84 0  78 16.499999999999996  78 37.5  C 78 58.5  60.84 75  39 75  C 17.159999999999997 75  0 58.5  0 37.5  Z " fill-rule="evenodd" />
    </mask>
  </defs>
  <g transform="matrix(1 0 0 1 -1159 -744 )">
    <path d="M 0 37.5  C 0 16.499999999999996  17.159999999999997 0  39 0  C 60.84 0  78 16.499999999999996  78 37.5  C 78 58.5  60.84 75  39 75  C 17.159999999999997 75  0 58.5  0 37.5  Z " fill-rule="nonzero" fill="rgba(255, 255, 0, 1)" stroke="none" transform="matrix(1 0 0 1 1159 744 )" class="fill" />
    <path d="M 0 37.5  C 0 16.499999999999996  17.159999999999997 0  39 0  C 60.84 0  78 16.499999999999996  78 37.5  C 78 58.5  60.84 75  39 75  C 17.159999999999997 75  0 58.5  0 37.5  Z " stroke-width="2" stroke-dasharray="0" stroke="rgba(121, 121, 121, 1)" fill="none" transform="matrix(1 0 0 1 1159 744 )" class="stroke" mask="url(#Clip18)" />
  </g>
</svg>