<?xml version="1.0" encoding="utf-8"?>
<svg version="1.1" xmlns:xlink="http://www.w3.org/1999/xlink" width="138px" height="91px" xmlns="http://www.w3.org/2000/svg">
  <defs>
    <pattern id="BGPattern" patternUnits="userSpaceOnUse" alignment="0 0" imageRepeat="None" />
    <mask fill="white" id="Clip112">
      <path d="M 0 91  L 0 0  L 138 0  L 138 91  L 0 91  Z " fill-rule="evenodd" />
    </mask>
  </defs>
  <g transform="matrix(1 0 0 1 -152 -227 )">
    <path d="M 0 91  L 0 0  L 138 0  L 138 91  L 0 91  Z " fill-rule="nonzero" fill="rgba(242, 242, 242, 1)" stroke="none" transform="matrix(1 0 0 1 152 227 )" class="fill" />
    <path d="M 0 91  L 0 0  L 138 0  L 138 91  L 0 91  Z " stroke-width="2" stroke-dasharray="0" stroke="rgba(121, 121, 121, 1)" fill="none" transform="matrix(1 0 0 1 152 227 )" class="stroke" mask="url(#Clip112)" />
    <path d="M 137.36699564269583 0.41741591677304335  L 0.6330043573041757 90.58258408322695  M 0.6330043573041757 0.41741591677304335  L 137.36699564269583 90.58258408322695  " stroke-width="1" stroke-dasharray="0" stroke="rgba(121, 121, 121, 1)" fill="none" transform="matrix(1 0 0 1 152 227 )" class="stroke" />
  </g>
</svg>