<?xml version="1.0" encoding="utf-8"?>
<svg version="1.1" xmlns:xlink="http://www.w3.org/1999/xlink" width="21px" height="22px" xmlns="http://www.w3.org/2000/svg">
  <defs>
    <pattern id="BGPattern" patternUnits="userSpaceOnUse" alignment="0 0" imageRepeat="None" />
    <mask fill="white" id="Clip61">
      <path d="M 0 22  L 0 0  L 21 0  L 21 22  L 0 22  Z " fill-rule="evenodd" />
    </mask>
  </defs>
  <g transform="matrix(1 0 0 1 -257 -139 )">
    <path d="M 0 22  L 0 0  L 21 0  L 21 22  L 0 22  Z " fill-rule="nonzero" fill="rgba(242, 242, 242, 1)" stroke="none" transform="matrix(1 0 0 1 257 139 )" class="fill" />
    <path d="M 0 22  L 0 0  L 21 0  L 21 22  L 0 22  Z " stroke-width="2" stroke-dasharray="0" stroke="rgba(121, 121, 121, 1)" fill="none" transform="matrix(1 0 0 1 257 139 )" class="stroke" mask="url(#Clip61)" />
    <path d="M 20.638322227928214 0.37890052312282346  L 0.36167777207178603 21.621099476877177  M 0.36167777207178603 0.37890052312282346  L 20.638322227928214 21.621099476877177  " stroke-width="1" stroke-dasharray="0" stroke="rgba(121, 121, 121, 1)" fill="none" transform="matrix(1 0 0 1 257 139 )" class="stroke" />
  </g>
</svg>