<?xml version="1.0" encoding="utf-8"?>
<svg version="1.1" xmlns:xlink="http://www.w3.org/1999/xlink" width="24px" height="24px" xmlns="http://www.w3.org/2000/svg">
  <defs>
    <pattern id="BGPattern" patternUnits="userSpaceOnUse" alignment="0 0" imageRepeat="None" />
    <mask fill="white" id="Clip67">
      <path d="M 0 12  C 0 7.78992453010278  2.0724074201161784 4.145051083873568  5.272959095515034 2.009642826146319  C 7.181034904935132 0.7365745388490268  9.490075469897192 0  12 0  C 18.720000000000027 0  24 5.279999999999973  24 12  C 24 15.839961057582059  22.275953335871463 19.20972757040181  19.544339666889982 21.392819879183435  C 17.495580936180204 23.03017785492898  14.880038942417968 24  12 24  C 5.279999999999973 24  0 18.720000000000027  0 12  Z " fill-rule="evenodd" />
    </mask>
  </defs>
  <g transform="matrix(1 0 0 1 -1086 -311 )">
    <path d="M 0 12  C 0 7.78992453010278  2.0724074201161784 4.145051083873568  5.272959095515034 2.009642826146319  C 7.181034904935132 0.7365745388490268  9.490075469897192 0  12 0  C 18.720000000000027 0  24 5.279999999999973  24 12  C 24 15.839961057582059  22.275953335871463 19.20972757040181  19.544339666889982 21.392819879183435  C 17.495580936180204 23.03017785492898  14.880038942417968 24  12 24  C 5.279999999999973 24  0 18.720000000000027  0 12  Z " fill-rule="nonzero" fill="rgba(255, 255, 128, 0.6)" stroke="none" transform="matrix(1 0 0 1 1086 311 )" class="fill" />
    <path d="M 0 12  C 0 7.78992453010278  2.0724074201161784 4.145051083873568  5.272959095515034 2.009642826146319  C 7.181034904935132 0.7365745388490268  9.490075469897192 0  12 0  C 18.720000000000027 0  24 5.279999999999973  24 12  C 24 15.839961057582059  22.275953335871463 19.20972757040181  19.544339666889982 21.392819879183435  C 17.495580936180204 23.03017785492898  14.880038942417968 24  12 24  C 5.279999999999973 24  0 18.720000000000027  0 12  Z " stroke-width="2" stroke-dasharray="0" stroke="rgba(255, 233, 0, 1)" fill="none" transform="matrix(1 0 0 1 1086 311 )" class="stroke" mask="url(#Clip67)" />
  </g>
</svg>