<?xml version="1.0" encoding="utf-8"?>
<svg version="1.1" xmlns:xlink="http://www.w3.org/1999/xlink" width="116px" height="66px" xmlns="http://www.w3.org/2000/svg">
  <defs>
    <pattern id="BGPattern" patternUnits="userSpaceOnUse" alignment="0 0" imageRepeat="None" />
    <mask fill="white" id="Clip47">
      <path d="M 0 66  L 0 0  L 116 0  L 116 66  L 0 66  Z " fill-rule="evenodd" />
    </mask>
  </defs>
  <g transform="matrix(1 0 0 1 -411 -343 )">
    <path d="M 0 66  L 0 0  L 116 0  L 116 66  L 0 66  Z " fill-rule="nonzero" fill="rgba(242, 242, 242, 1)" stroke="none" transform="matrix(1 0 0 1 411 343 )" class="fill" />
    <path d="M 0 66  L 0 0  L 116 0  L 116 66  L 0 66  Z " stroke-width="2" stroke-dasharray="0" stroke="rgba(121, 121, 121, 1)" fill="none" transform="matrix(1 0 0 1 411 343 )" class="stroke" mask="url(#Clip47)" />
    <path d="M 115.23618935973646 0.4345819160120218  L 0.7638106402635534 65.56541808398798  M 0.7638106402635534 0.4345819160120218  L 115.23618935973646 65.56541808398798  " stroke-width="1" stroke-dasharray="0" stroke="rgba(121, 121, 121, 1)" fill="none" transform="matrix(1 0 0 1 411 343 )" class="stroke" />
  </g>
</svg>