<?xml version="1.0" encoding="utf-8"?>
<svg version="1.1" xmlns:xlink="http://www.w3.org/1999/xlink" width="19px" height="20px" xmlns="http://www.w3.org/2000/svg">
  <defs>
    <pattern id="BGPattern" patternUnits="userSpaceOnUse" alignment="0 0" imageRepeat="None" />
    <mask fill="white" id="Clip85">
      <path d="M 0 10  C 0 4.3999999999999995  4.18 0  9.5 0  C 14.82 0  19 4.3999999999999995  19 10  C 19 15.600000000000001  14.82 20  9.5 20  C 4.18 20  0 15.600000000000001  0 10  Z " fill-rule="evenodd" />
    </mask>
  </defs>
  <g transform="matrix(1 0 0 1 -743 -246 )">
    <path d="M 0 10  C 0 4.3999999999999995  4.18 0  9.5 0  C 14.82 0  19 4.3999999999999995  19 10  C 19 15.600000000000001  14.82 20  9.5 20  C 4.18 20  0 15.600000000000001  0 10  Z " fill-rule="nonzero" fill="rgba(255, 255, 255, 1)" stroke="none" transform="matrix(1 0 0 1 743 246 )" class="fill" />
    <path d="M 0 10  C 0 4.3999999999999995  4.18 0  9.5 0  C 14.82 0  19 4.3999999999999995  19 10  C 19 15.600000000000001  14.82 20  9.5 20  C 4.18 20  0 15.600000000000001  0 10  Z " stroke-width="2" stroke-dasharray="0" stroke="rgba(121, 121, 121, 1)" fill="none" transform="matrix(1 0 0 1 743 246 )" class="stroke" mask="url(#Clip85)" />
  </g>
</svg>