<?xml version="1.0" encoding="utf-8"?>
<svg version="1.1" xmlns:xlink="http://www.w3.org/1999/xlink" width="18px" height="20px" xmlns="http://www.w3.org/2000/svg">
  <defs>
    <pattern id="BGPattern" patternUnits="userSpaceOnUse" alignment="0 0" imageRepeat="None" />
    <mask fill="white" id="Clip84">
      <path d="M 0 10  C 0 4.3999999999999995  3.9599999999999995 0  9 0  C 14.040000000000001 0  18 4.3999999999999995  18 10  C 18 15.600000000000001  14.040000000000001 20  9 20  C 3.9599999999999995 20  0 15.600000000000001  0 10  Z " fill-rule="evenodd" />
    </mask>
  </defs>
  <g transform="matrix(1 0 0 1 -743 -211 )">
    <path d="M 0 10  C 0 4.3999999999999995  3.9599999999999995 0  9 0  C 14.040000000000001 0  18 4.3999999999999995  18 10  C 18 15.600000000000001  14.040000000000001 20  9 20  C 3.9599999999999995 20  0 15.600000000000001  0 10  Z " fill-rule="nonzero" fill="rgba(255, 255, 255, 1)" stroke="none" transform="matrix(1 0 0 1 743 211 )" class="fill" />
    <path d="M 0 10  C 0 4.3999999999999995  3.9599999999999995 0  9 0  C 14.040000000000001 0  18 4.3999999999999995  18 10  C 18 15.600000000000001  14.040000000000001 20  9 20  C 3.9599999999999995 20  0 15.600000000000001  0 10  Z " stroke-width="2" stroke-dasharray="0" stroke="rgba(121, 121, 121, 1)" fill="none" transform="matrix(1 0 0 1 743 211 )" class="stroke" mask="url(#Clip84)" />
  </g>
</svg>