<?xml version="1.0" encoding="utf-8"?>
<svg version="1.1" xmlns:xlink="http://www.w3.org/1999/xlink" width="24px" height="24px" xmlns="http://www.w3.org/2000/svg">
  <defs>
    <pattern id="BGPattern" patternUnits="userSpaceOnUse" alignment="0 0" imageRepeat="None" />
    <mask fill="white" id="Clip54">
      <path d="M 0 12  C 0 9.070859100643872  1.00317315573011 6.415310880123229  2.6915069650707437 4.351367840557685  C 4.876528377823718 1.6802374567419065  8.209140899356157 0  12 0  C 18.720000000000027 0  24 5.280000000000001  24 12  C 24 18.72  18.720000000000027 24  12 24  C 5.279999999999973 24  0 18.72  0 12  Z " fill-rule="evenodd" />
    </mask>
  </defs>
  <g transform="matrix(1 0 0 1 -463 -161 )">
    <path d="M 0 12  C 0 9.070859100643872  1.00317315573011 6.415310880123229  2.6915069650707437 4.351367840557685  C 4.876528377823718 1.6802374567419065  8.209140899356157 0  12 0  C 18.720000000000027 0  24 5.280000000000001  24 12  C 24 18.72  18.720000000000027 24  12 24  C 5.279999999999973 24  0 18.72  0 12  Z " fill-rule="nonzero" fill="rgba(255, 255, 128, 0.6)" stroke="none" transform="matrix(1 0 0 1 463 161 )" class="fill" />
    <path d="M 0 12  C 0 9.070859100643872  1.00317315573011 6.415310880123229  2.6915069650707437 4.351367840557685  C 4.876528377823718 1.6802374567419065  8.209140899356157 0  12 0  C 18.720000000000027 0  24 5.280000000000001  24 12  C 24 18.72  18.720000000000027 24  12 24  C 5.279999999999973 24  0 18.72  0 12  Z " stroke-width="2" stroke-dasharray="0" stroke="rgba(255, 233, 0, 1)" fill="none" transform="matrix(1 0 0 1 463 161 )" class="stroke" mask="url(#Clip54)" />
  </g>
</svg>