<?xml version="1.0" encoding="utf-8"?>
<svg version="1.1" xmlns:xlink="http://www.w3.org/1999/xlink" width="106px" height="34px" xmlns="http://www.w3.org/2000/svg">
  <defs>
    <pattern id="BGPattern" patternUnits="userSpaceOnUse" alignment="0 0" imageRepeat="None" />
    <mask fill="white" id="Clip121">
      <path d="M 0 22  L 0 4  C 0 1.759999999999991  1.9164444444444368 0  4.355555555555554 0  L 36.33607305936073 0  L 78.32258064516128 0  L 93.64444444444445 0  C 96.08355555555556 0  98 1.759999999999991  98 4  L 98 22  C 98 24.24000000000001  96.08355555555556 26  93.64444444444445 26  L 4.355555555555554 26  C 1.9164444444444368 26  0 24.24000000000001  0 22  Z " fill-rule="evenodd" />
    </mask>
  </defs>
  <g transform="matrix(1 0 0 1 -258 -959 )">
    <path d="M 0 22  L 0 4  C 0 1.759999999999991  1.9164444444444368 0  4.355555555555554 0  L 36.33607305936073 0  L 78.32258064516128 0  L 93.64444444444445 0  C 96.08355555555556 0  98 1.759999999999991  98 4  L 98 22  C 98 24.24000000000001  96.08355555555556 26  93.64444444444445 26  L 4.355555555555554 26  C 1.9164444444444368 26  0 24.24000000000001  0 22  Z " fill-rule="nonzero" fill="rgba(24, 144, 255, 1)" stroke="none" transform="matrix(1 0 0 1 262 959 )" class="fill" />
    <path d="M 0 22  L 0 4  C 0 1.759999999999991  1.9164444444444368 0  4.355555555555554 0  L 36.33607305936073 0  L 78.32258064516128 0  L 93.64444444444445 0  C 96.08355555555556 0  98 1.759999999999991  98 4  L 98 22  C 98 24.24000000000001  96.08355555555556 26  93.64444444444445 26  L 4.355555555555554 26  C 1.9164444444444368 26  0 24.24000000000001  0 22  Z " stroke-width="0" stroke-dasharray="0" stroke="rgba(255, 255, 255, 1)" fill="none" transform="matrix(1 0 0 1 262 959 )" class="stroke" mask="url(#Clip121)" />
  </g>
  <style>svg { filter: drop-shadow(0px 4px 2px rgba(0, 0, 0, 0.2)); }</style>
</svg>