<?xml version="1.0" encoding="utf-8"?>
<svg version="1.1" xmlns:xlink="http://www.w3.org/1999/xlink" width="25px" height="23px" xmlns="http://www.w3.org/2000/svg">
  <defs>
    <pattern id="BGPattern" patternUnits="userSpaceOnUse" alignment="0 0" imageRepeat="None" />
    <mask fill="white" id="Clip21">
      <path d="M 0 23  L 0 0  L 25 0  L 25 23  L 0 23  Z " fill-rule="evenodd" />
    </mask>
  </defs>
  <g transform="matrix(1 0 0 1 -425 -405 )">
    <path d="M 0 23  L 0 0  L 25 0  L 25 23  L 0 23  Z " fill-rule="nonzero" fill="rgba(242, 242, 242, 1)" stroke="none" transform="matrix(1 0 0 1 425 405 )" class="fill" />
    <path d="M 0 23  L 0 0  L 25 0  L 25 23  L 0 23  Z " stroke-width="2" stroke-dasharray="0" stroke="rgba(121, 121, 121, 1)" fill="none" transform="matrix(1 0 0 1 425 405 )" class="stroke" mask="url(#Clip21)" />
    <path d="M 24.6000374936077 0.3679655058809148  L 0.39996250639229874 22.632034494119086  M 0.39996250639229874 0.3679655058809148  L 24.6000374936077 22.632034494119086  " stroke-width="1" stroke-dasharray="0" stroke="rgba(121, 121, 121, 1)" fill="none" transform="matrix(1 0 0 1 425 405 )" class="stroke" />
  </g>
</svg>