<?xml version="1.0" encoding="utf-8"?>
<svg version="1.1" xmlns:xlink="http://www.w3.org/1999/xlink" width="312px" height="250px" xmlns="http://www.w3.org/2000/svg">
  <defs>
    <pattern id="BGPattern" patternUnits="userSpaceOnUse" alignment="0 0" imageRepeat="None" />
    <mask fill="white" id="Clip76">
      <path d="M 0 250  L 0 0  L 312 0  L 312 250  L 0 250  Z " fill-rule="evenodd" />
    </mask>
  </defs>
  <g transform="matrix(1 0 0 1 -2149 -1442 )">
    <path d="M 0 250  L 0 0  L 312 0  L 312 250  L 0 250  Z " fill-rule="nonzero" fill="rgba(51, 51, 51, 1)" stroke="none" transform="matrix(1 0 0 1 2149 1442 )" class="fill" />
    <path d="M 0 250  L 0 0  L 312 0  L 312 250  L 0 250  Z " stroke-width="2" stroke-dasharray="0" stroke="rgba(121, 121, 121, 1)" fill="none" transform="matrix(1 0 0 1 2149 1442 )" class="stroke" mask="url(#Clip76)" />
    <path d="M 311.5130425503508 0.39019026414196367  L 0.48695744964917065 249.60980973585802  M 0.48695744964917065 0.39019026414196367  L 311.5130425503508 249.60980973585802  " stroke-width="1" stroke-dasharray="0" stroke="rgba(121, 121, 121, 1)" fill="none" transform="matrix(1 0 0 1 2149 1442 )" class="stroke" />
  </g>
</svg>