<?xml version="1.0" encoding="utf-8"?>
<svg version="1.1" xmlns:xlink="http://www.w3.org/1999/xlink" width="61px" height="32px" xmlns="http://www.w3.org/2000/svg">
  <defs>
    <pattern id="BGPattern" patternUnits="userSpaceOnUse" alignment="0 0" imageRepeat="None" />
    <mask fill="white" id="Clip151">
      <path d="M 0 28  L 0 4  C 0 1.759999999999991  1.2062921348314544 0  2.741573033707865 0  L 58.258426966292134 0  C 59.79370786516855 0  61 1.759999999999991  61 4  L 61 28  C 61 30.24000000000001  59.79370786516855 32  58.258426966292134 32  L 31.901940755873316 32  L 2.741573033707865 32  C 1.2062921348314544 32  0 30.24000000000001  0 28  Z " fill-rule="evenodd" />
    </mask>
  </defs>
  <g transform="matrix(1 0 0 1 -302 -219 )">
    <path d="M 0 28  L 0 4  C 0 1.759999999999991  1.2062921348314544 0  2.741573033707865 0  L 58.258426966292134 0  C 59.79370786516855 0  61 1.759999999999991  61 4  L 61 28  C 61 30.24000000000001  59.79370786516855 32  58.258426966292134 32  L 31.901940755873316 32  L 2.741573033707865 32  C 1.2062921348314544 32  0 30.24000000000001  0 28  Z " fill-rule="nonzero" fill="rgba(24, 144, 255, 1)" stroke="none" transform="matrix(1 0 0 1 302 219 )" class="fill" />
    <path d="M 0 28  L 0 4  C 0 1.759999999999991  1.2062921348314544 0  2.741573033707865 0  L 58.258426966292134 0  C 59.79370786516855 0  61 1.759999999999991  61 4  L 61 28  C 61 30.24000000000001  59.79370786516855 32  58.258426966292134 32  L 31.901940755873316 32  L 2.741573033707865 32  C 1.2062921348314544 32  0 30.24000000000001  0 28  Z " stroke-width="0" stroke-dasharray="0" stroke="rgba(121, 121, 121, 1)" fill="none" transform="matrix(1 0 0 1 302 219 )" class="stroke" mask="url(#Clip151)" />
  </g>
</svg>