<?xml version="1.0" encoding="utf-8"?>
<svg version="1.1" xmlns:xlink="http://www.w3.org/1999/xlink" width="117px" height="32px" xmlns="http://www.w3.org/2000/svg">
  <defs>
    <pattern id="BGPattern" patternUnits="userSpaceOnUse" alignment="0 0" imageRepeat="None" />
    <mask fill="white" id="Clip152">
      <path d="M 0 28  L 0 4  C 0 1.759999999999991  2.3137078651685274 0  5.258426966292134 0  L 111.74157303370787 0  C 114.68629213483148 0  117 1.759999999999991  117 4  L 117 28  C 117 30.24000000000001  114.68629213483148 32  111.74157303370787 32  L 61.1889683350357 32  L 5.258426966292134 32  C 2.3137078651685274 32  0 30.24000000000001  0 28  Z " fill-rule="evenodd" />
    </mask>
  </defs>
  <g transform="matrix(1 0 0 1 -481 -219 )">
    <path d="M 0 28  L 0 4  C 0 1.759999999999991  2.3137078651685274 0  5.258426966292134 0  L 111.74157303370787 0  C 114.68629213483148 0  117 1.759999999999991  117 4  L 117 28  C 117 30.24000000000001  114.68629213483148 32  111.74157303370787 32  L 61.1889683350357 32  L 5.258426966292134 32  C 2.3137078651685274 32  0 30.24000000000001  0 28  Z " fill-rule="nonzero" fill="rgba(24, 144, 255, 1)" stroke="none" transform="matrix(1 0 0 1 481 219 )" class="fill" />
    <path d="M 0 28  L 0 4  C 0 1.759999999999991  2.3137078651685274 0  5.258426966292134 0  L 111.74157303370787 0  C 114.68629213483148 0  117 1.759999999999991  117 4  L 117 28  C 117 30.24000000000001  114.68629213483148 32  111.74157303370787 32  L 61.1889683350357 32  L 5.258426966292134 32  C 2.3137078651685274 32  0 30.24000000000001  0 28  Z " stroke-width="0" stroke-dasharray="0" stroke="rgba(121, 121, 121, 1)" fill="none" transform="matrix(1 0 0 1 481 219 )" class="stroke" mask="url(#Clip152)" />
  </g>
</svg>