<?xml version="1.0" encoding="utf-8"?>
<svg version="1.1" xmlns:xlink="http://www.w3.org/1999/xlink" width="111px" height="32px" xmlns="http://www.w3.org/2000/svg">
  <defs>
    <pattern id="BGPattern" patternUnits="userSpaceOnUse" alignment="0 0" imageRepeat="None" />
    <mask fill="white" id="Clip153">
      <path d="M 0 28  L 0 4  C 0 1.759999999999991  2.1950561797752695 0  4.98876404494382 0  L 106.01123595505618 0  C 108.80494382022474 0  111 1.759999999999991  111 4  L 111 28  C 111 30.24000000000001  108.80494382022474 32  106.01123595505618 32  L 58.05107252298259 32  L 4.98876404494382 32  C 2.1950561797752695 32  0 30.24000000000001  0 28  Z " fill-rule="evenodd" />
    </mask>
  </defs>
  <g transform="matrix(1 0 0 1 -1325 -137 )">
    <path d="M 0 28  L 0 4  C 0 1.759999999999991  2.1950561797752695 0  4.98876404494382 0  L 106.01123595505618 0  C 108.80494382022474 0  111 1.759999999999991  111 4  L 111 28  C 111 30.24000000000001  108.80494382022474 32  106.01123595505618 32  L 58.05107252298259 32  L 4.98876404494382 32  C 2.1950561797752695 32  0 30.24000000000001  0 28  Z " fill-rule="nonzero" fill="rgba(24, 144, 255, 1)" stroke="none" transform="matrix(1 0 0 1 1325 137 )" class="fill" />
    <path d="M 0 28  L 0 4  C 0 1.759999999999991  2.1950561797752695 0  4.98876404494382 0  L 106.01123595505618 0  C 108.80494382022474 0  111 1.759999999999991  111 4  L 111 28  C 111 30.24000000000001  108.80494382022474 32  106.01123595505618 32  L 58.05107252298259 32  L 4.98876404494382 32  C 2.1950561797752695 32  0 30.24000000000001  0 28  Z " stroke-width="0" stroke-dasharray="0" stroke="rgba(121, 121, 121, 1)" fill="none" transform="matrix(1 0 0 1 1325 137 )" class="stroke" mask="url(#Clip153)" />
  </g>
</svg>