<?xml version="1.0" encoding="utf-8"?>
<svg version="1.1" xmlns:xlink="http://www.w3.org/1999/xlink" width="552px" height="18px" xmlns="http://www.w3.org/2000/svg">
  <defs>
    <pattern id="BGPattern" patternUnits="userSpaceOnUse" alignment="0 0" imageRepeat="None" />
    <mask fill="white" id="Clip109">
      <path d="M 0 18  L 0 0  L 43.03225806451613 0  L 57.28071818615581 0  L 72.88854330499959 0  L 118.03225806451613 0  L 552 0  L 552 18  L 70.81663676804558 18  L 50.29032258064517 18  L 21.41758241758241 18  L 0 18  Z " fill-rule="evenodd" />
    </mask>
  </defs>
  <g transform="matrix(1 0 0 1 -117 -1896 )">
    <path d="M 0 18  L 0 0  L 43.03225806451613 0  L 57.28071818615581 0  L 72.88854330499959 0  L 118.03225806451613 0  L 552 0  L 552 18  L 70.81663676804558 18  L 50.29032258064517 18  L 21.41758241758241 18  L 0 18  Z " fill-rule="nonzero" fill="rgba(250, 205, 145, 1)" stroke="none" transform="matrix(1 0 0 1 117 1896 )" class="fill" />
    <path d="M 0 18  L 0 0  L 43.03225806451613 0  L 57.28071818615581 0  L 72.88854330499959 0  L 118.03225806451613 0  L 552 0  L 552 18  L 70.81663676804558 18  L 50.29032258064517 18  L 21.41758241758241 18  L 0 18  Z " stroke-width="0" stroke-dasharray="0" stroke="rgba(121, 121, 121, 1)" fill="none" transform="matrix(1 0 0 1 117 1896 )" class="stroke" mask="url(#Clip109)" />
  </g>
</svg>