<?xml version="1.0" encoding="utf-8"?>
<svg version="1.1" xmlns:xlink="http://www.w3.org/1999/xlink" width="218px" height="64px" xmlns="http://www.w3.org/2000/svg">
  <defs>
    <pattern id="BGPattern" patternUnits="userSpaceOnUse" alignment="0 0" imageRepeat="None" />
    <mask fill="white" id="Clip110">
      <path d="M 0 60  L 0 4  C 0 1.7599999999999998  1.76 0  4 0  L 214 0  C 216.23999999999998 0  218 1.7599999999999998  218 4  L 218 60  C 218 62.24  216.23999999999998 64  214 64  L 4 64  C 1.76 64  0 62.24  0 60  Z " fill-rule="evenodd" />
    </mask>
  </defs>
  <g transform="matrix(1 0 0 1 -610 -556 )">
    <path d="M 0 60  L 0 4  C 0 1.7599999999999998  1.76 0  4 0  L 214 0  C 216.23999999999998 0  218 1.7599999999999998  218 4  L 218 60  C 218 62.24  216.23999999999998 64  214 64  L 4 64  C 1.76 64  0 62.24  0 60  Z " fill-rule="nonzero" fill="rgba(255, 255, 255, 0.7490196078431373)" stroke="none" transform="matrix(1 0 0 1 610 556 )" class="fill" />
    <path d="M 0 60  L 0 4  C 0 1.7599999999999998  1.76 0  4 0  L 214 0  C 216.23999999999998 0  218 1.7599999999999998  218 4  L 218 60  C 218 62.24  216.23999999999998 64  214 64  L 4 64  C 1.76 64  0 62.24  0 60  Z " stroke-width="2" stroke-dasharray="0" stroke="rgba(255, 255, 255, 0)" fill="none" transform="matrix(1 0 0 1 610 556 )" class="stroke" mask="url(#Clip110)" />
  </g>
</svg>