<?xml version="1.0" encoding="utf-8"?>
<svg version="1.1" xmlns:xlink="http://www.w3.org/1999/xlink" width="20px" height="23px" xmlns="http://www.w3.org/2000/svg">
  <defs>
    <pattern id="BGPattern" patternUnits="userSpaceOnUse" alignment="0 0" imageRepeat="None" />
    <mask fill="white" id="Clip111">
      <path d="M 0 11.5  C 0 5.06  4.3999999999999995 0  10 0  C 15.600000000000001 0  20 5.06  20 11.5  C 20 17.94  15.600000000000001 23  10 23  C 4.3999999999999995 23  0 17.94  0 11.5  Z " fill-rule="evenodd" />
    </mask>
  </defs>
  <g transform="matrix(1 0 0 1 -376 -486 )">
    <path d="M 0 11.5  C 0 5.06  4.3999999999999995 0  10 0  C 15.600000000000001 0  20 5.06  20 11.5  C 20 17.94  15.600000000000001 23  10 23  C 4.3999999999999995 23  0 17.94  0 11.5  Z " fill-rule="nonzero" fill="rgba(255, 255, 255, 1)" stroke="none" transform="matrix(1 0 0 1 376 486 )" class="fill" />
    <path d="M 0 11.5  C 0 5.06  4.3999999999999995 0  10 0  C 15.600000000000001 0  20 5.06  20 11.5  C 20 17.94  15.600000000000001 23  10 23  C 4.3999999999999995 23  0 17.94  0 11.5  Z " stroke-width="2" stroke-dasharray="0" stroke="rgba(121, 121, 121, 0)" fill="none" transform="matrix(1 0 0 1 376 486 )" class="stroke" mask="url(#Clip111)" />
  </g>
</svg>