<?xml version="1.0" encoding="utf-8"?>
<svg version="1.1" xmlns:xlink="http://www.w3.org/1999/xlink" width="175px" height="108px" xmlns="http://www.w3.org/2000/svg">
  <defs>
    <pattern id="BGPattern" patternUnits="userSpaceOnUse" alignment="0 0" imageRepeat="None" />
    <mask fill="white" id="Clip120">
      <path d="M 0 108  L 0 0  L 175 0  L 175 108  L 0 108  Z " fill-rule="evenodd" />
    </mask>
  </defs>
  <g transform="matrix(1 0 0 1 -122 -219 )">
    <path d="M 0 108  L 0 0  L 175 0  L 175 108  L 0 108  Z " fill-rule="nonzero" fill="rgba(242, 242, 242, 1)" stroke="none" transform="matrix(1 0 0 1 122 219 )" class="fill" />
    <path d="M 0 108  L 0 0  L 175 0  L 175 108  L 0 108  Z " stroke-width="2" stroke-dasharray="0" stroke="rgba(121, 121, 121, 1)" fill="none" transform="matrix(1 0 0 1 122 219 )" class="stroke" mask="url(#Clip120)" />
    <path d="M 174.31054069312762 0.4254948865269624  L 0.6894593068723928 107.57450511347304  M 0.6894593068723928 0.4254948865269624  L 174.31054069312762 107.57450511347304  " stroke-width="1" stroke-dasharray="0" stroke="rgba(121, 121, 121, 1)" fill="none" transform="matrix(1 0 0 1 122 219 )" class="stroke" />
  </g>
</svg>